<?xml version="1.0" encoding="UTF-8" ?>
<!DOCTYPE svg PUBLIC "-//W3C//DTD SVG 1.1//EN" "http://www.w3.org/Graphics/SVG/1.1/DTD/svg11.dtd">
<svg width="642pt" height="405pt" viewBox="0 0 642 405" version="1.1" xmlns="http://www.w3.org/2000/svg">
<g id="#ffffffff">
<path fill="#ffffff" opacity="1.00" d=" M 0.00 0.00 L 642.00 0.00 L 642.00 405.00 L 0.00 405.00 L 0.00 0.00 M 82.36 61.55 C 73.24 63.68 66.43 72.60 66.68 81.96 C 66.70 146.67 66.66 211.37 66.70 276.08 C 67.18 280.98 69.19 285.85 72.59 289.46 C 76.51 292.93 81.62 295.47 86.94 295.41 C 227.29 295.41 367.65 295.41 508.00 295.41 C 512.67 295.31 517.56 296.03 521.99 294.12 C 529.35 291.84 534.91 284.72 535.40 277.06 C 535.42 211.69 535.40 146.32 535.41 80.95 C 535.84 70.29 525.69 60.47 515.03 61.28 C 372.68 61.28 230.32 61.28 87.96 61.28 C 86.09 61.31 84.21 61.27 82.36 61.55 Z" />
<path fill="#ffffff" opacity="1.00" d=" M 80.55 69.53 C 82.41 68.17 84.80 68.27 86.99 68.20 C 229.66 68.22 372.34 68.19 515.01 68.22 C 522.05 67.38 528.78 73.93 528.43 80.94 C 528.42 145.64 528.43 210.34 528.42 275.04 C 528.98 282.64 521.47 289.30 514.05 288.53 C 371.68 288.54 229.31 288.54 86.95 288.53 C 82.41 288.73 78.13 285.95 75.70 282.24 C 73.48 278.21 73.59 273.45 73.67 269.00 C 73.69 206.64 73.67 144.29 73.68 81.94 C 73.76 77.04 76.17 71.97 80.55 69.53 M 338.55 122.76 C 338.36 137.39 338.55 152.03 338.46 166.66 C 342.83 166.70 347.20 166.71 351.57 166.62 C 351.69 159.03 351.21 151.41 351.77 143.83 C 353.77 142.41 356.24 142.71 358.55 142.76 C 358.60 150.52 358.53 158.28 358.55 166.03 C 362.49 167.54 367.32 166.39 371.60 166.53 C 371.39 157.33 371.60 148.12 371.50 138.92 C 371.72 135.77 368.84 133.33 366.03 132.57 C 361.19 131.58 356.19 132.30 351.56 133.86 C 351.54 129.99 351.56 126.13 351.55 122.26 C 347.22 122.40 342.88 122.66 338.55 122.76 M 437.71 132.70 C 431.95 132.70 425.01 132.01 420.78 136.77 C 416.28 141.73 417.19 148.90 417.45 155.06 C 418.19 159.48 420.18 164.55 424.67 166.34 C 430.23 168.98 436.75 167.63 441.77 164.43 C 444.22 166.77 447.43 166.97 450.68 166.70 C 450.70 151.89 450.70 137.07 450.69 122.26 C 446.81 122.46 442.91 122.49 439.04 122.81 C 436.26 125.12 438.21 129.49 437.71 132.70 M 171.17 126.29 C 166.21 128.46 165.30 134.54 165.34 139.34 C 166.98 140.23 168.64 141.09 170.31 141.94 C 168.58 142.94 166.71 143.81 165.38 145.35 C 162.35 148.43 163.35 153.12 163.21 157.03 C 163.02 160.80 164.76 164.95 168.44 166.46 C 174.47 169.19 181.17 166.80 187.24 165.42 C 188.03 168.23 188.65 171.09 188.71 174.02 C 191.39 174.48 194.04 173.69 196.71 173.48 C 196.76 166.05 196.59 158.63 196.80 151.20 C 198.36 150.92 199.94 150.68 201.53 150.48 C 202.38 147.29 202.67 144.00 202.67 140.71 C 194.58 140.63 186.48 140.90 178.39 140.56 C 178.45 139.60 178.57 137.68 178.63 136.72 C 181.81 135.53 185.21 135.66 188.55 135.66 C 189.30 132.39 189.86 129.09 190.60 125.82 C 184.11 125.80 177.33 123.21 171.17 126.29 M 207.82 125.74 C 207.88 134.16 207.60 142.59 207.25 151.00 C 206.34 156.15 206.58 161.39 206.29 166.59 C 210.71 166.75 215.13 166.69 219.56 166.67 C 220.25 160.00 220.31 153.29 220.78 146.60 C 223.61 152.96 224.46 159.97 226.39 166.62 C 229.72 166.71 233.04 166.71 236.37 166.62 C 238.44 160.00 238.89 152.78 242.16 146.60 C 242.76 153.24 242.43 159.93 242.82 166.58 C 247.42 166.73 252.03 166.78 256.63 166.57 C 256.54 158.68 255.21 150.90 255.36 143.00 C 254.68 137.13 254.32 131.23 254.41 125.31 C 248.61 124.31 242.54 124.44 236.74 125.32 C 235.53 132.04 233.42 138.56 232.19 145.28 C 231.84 145.40 231.13 145.64 230.78 145.76 C 229.40 138.90 227.26 132.20 226.09 125.29 C 220.08 124.57 213.69 123.96 207.82 125.74 M 122.18 125.17 C 122.18 139.02 122.16 152.86 122.19 166.71 C 126.35 166.67 130.51 166.69 134.67 166.66 C 134.63 162.60 134.64 158.55 134.63 154.49 C 135.49 154.49 137.22 154.48 138.08 154.47 C 139.84 158.50 141.31 162.69 143.47 166.52 C 148.24 166.87 153.05 166.75 157.82 166.48 C 155.47 162.03 152.73 157.76 150.97 153.02 C 153.96 150.53 156.55 147.11 156.56 143.06 C 156.59 139.01 157.16 134.62 154.94 130.99 C 153.13 127.31 149.01 125.29 145.02 125.26 C 137.41 125.01 129.79 125.20 122.18 125.17 M 276.08 134.03 C 270.56 136.65 270.45 143.94 272.23 148.92 C 275.48 155.45 283.75 154.94 289.92 155.54 C 289.79 156.07 289.55 157.13 289.43 157.66 C 283.77 157.63 277.98 158.16 272.53 156.33 C 271.44 159.48 271.20 162.82 271.27 166.13 C 279.02 167.57 287.11 168.56 294.90 166.79 C 303.80 165.03 305.38 150.72 297.53 146.61 C 293.52 144.47 288.87 144.38 284.44 144.43 C 284.43 143.78 284.41 142.48 284.40 141.84 C 289.39 141.30 294.33 142.21 299.27 142.81 C 299.60 139.98 300.21 137.20 300.76 134.41 C 292.99 131.28 283.89 130.69 276.08 134.03 M 392.31 131.94 C 386.15 132.26 379.70 135.67 378.22 142.09 C 376.59 149.34 376.46 158.24 381.98 163.97 C 386.11 167.42 391.84 167.90 397.01 167.63 C 401.73 167.50 406.77 165.65 409.42 161.53 C 412.72 157.04 411.63 151.19 411.75 145.99 C 411.99 140.68 408.70 135.30 403.66 133.43 C 400.06 132.20 396.12 131.36 392.31 131.94 M 312.62 134.56 C 307.52 137.82 306.03 144.33 306.33 150.01 C 306.09 155.56 307.67 162.00 312.62 165.18 C 318.69 168.42 326.12 168.33 332.57 166.32 C 332.42 163.28 332.29 160.24 331.82 157.23 C 328.02 157.68 324.19 157.78 320.37 157.54 C 320.58 152.72 320.03 147.86 320.70 143.07 C 323.70 140.95 327.45 142.03 330.85 141.70 C 332.14 138.96 331.63 135.67 331.76 132.70 C 325.42 132.16 318.35 131.09 312.62 134.56 M 475.77 134.11 C 475.03 140.88 473.28 147.52 473.13 154.35 C 472.37 154.33 471.61 154.31 470.86 154.30 C 470.61 147.16 469.11 140.14 467.67 133.17 C 463.48 133.13 459.30 133.08 455.12 133.22 C 456.89 143.06 460.23 152.57 461.80 162.44 C 464.33 162.93 466.88 163.31 469.45 163.63 C 466.18 167.90 460.38 168.08 455.52 168.90 C 455.51 171.80 455.49 174.70 455.50 177.60 C 460.01 177.67 464.52 177.73 469.03 177.64 C 472.48 177.61 476.38 176.41 478.11 173.16 C 481.63 167.03 482.22 159.80 484.18 153.11 C 485.61 146.30 488.10 139.68 488.75 132.73 C 484.82 132.77 480.89 132.59 476.97 132.79 C 476.67 133.12 476.07 133.78 475.77 134.11 M 383.82 189.21 C 372.89 189.90 361.93 189.49 350.99 189.81 C 344.62 190.52 338.20 190.27 331.81 190.65 C 319.62 190.97 307.44 190.40 295.26 190.63 C 286.92 193.23 278.46 189.63 270.02 190.61 C 265.17 190.85 260.29 190.28 255.48 191.09 C 247.01 191.89 238.45 191.02 230.00 192.12 C 221.03 192.83 212.02 192.50 203.03 192.80 C 195.15 193.96 187.18 192.92 179.27 193.44 C 175.35 195.05 171.12 194.49 167.01 194.89 C 170.12 198.14 174.38 199.61 178.84 199.26 C 184.82 198.10 190.95 198.25 197.01 198.39 C 203.32 198.68 209.71 198.01 215.96 199.21 C 222.30 199.64 228.68 199.47 234.99 198.77 C 250.00 198.64 265.01 198.65 280.01 198.74 C 292.61 200.04 305.31 199.08 317.94 199.78 C 325.81 201.19 333.84 200.19 341.78 200.53 C 348.19 200.76 354.57 201.72 361.00 201.46 C 372.11 201.20 383.26 202.40 394.33 201.24 C 386.54 199.32 378.43 199.55 370.46 199.51 C 370.46 198.98 370.45 197.93 370.45 197.40 C 369.03 197.45 367.60 197.46 366.18 197.47 C 366.32 196.98 366.61 196.00 366.75 195.51 C 371.83 195.65 376.93 195.59 382.00 195.33 C 386.74 194.25 391.61 194.58 396.43 194.51 L 396.00 193.49 C 397.09 195.09 399.38 194.08 401.00 194.36 C 411.23 193.48 421.51 193.28 431.77 193.44 C 437.04 193.44 442.38 192.68 447.61 193.73 C 452.74 194.75 458.04 194.59 463.24 194.20 C 458.27 193.18 453.15 194.23 448.16 193.43 C 445.11 192.92 442.11 192.19 439.06 191.73 C 426.12 191.39 413.16 192.16 400.24 191.54 C 400.83 190.55 401.39 189.56 401.92 188.54 C 395.89 188.77 389.82 188.35 383.82 189.21 M 417.73 197.59 C 421.47 197.89 425.24 197.55 429.00 197.78 C 434.40 198.03 439.92 199.15 445.26 197.77 C 436.11 197.29 426.86 196.83 417.73 197.59 M 326.94 221.33 C 330.39 222.15 334.27 221.85 336.91 219.25 C 336.05 218.16 335.20 217.08 334.35 216.00 C 331.38 216.94 328.95 219.01 326.94 221.33 M 428.59 219.68 C 428.50 220.22 428.34 221.30 428.26 221.84 C 431.17 221.79 434.10 221.47 436.85 220.43 C 436.57 218.97 436.19 217.54 435.72 216.14 C 432.93 216.33 430.82 218.24 428.59 219.68 M 183.53 217.73 C 183.20 225.27 183.52 232.82 183.33 240.36 C 185.44 240.42 187.56 240.42 189.68 240.37 C 189.64 236.52 189.43 232.66 189.77 228.82 C 190.70 228.69 192.55 228.44 193.48 228.31 C 193.56 232.32 193.55 236.33 193.44 240.33 C 195.54 240.42 197.63 240.43 199.73 240.39 C 199.64 235.31 199.72 230.23 199.64 225.15 C 196.91 222.94 193.39 223.45 190.16 223.74 C 190.17 221.70 190.17 219.67 190.18 217.64 C 187.96 217.64 185.75 217.69 183.53 217.73 M 232.61 218.35 C 232.62 220.00 232.63 221.64 232.65 223.29 C 229.82 223.59 226.38 222.86 224.29 225.29 C 221.75 227.47 222.31 231.11 222.42 234.09 C 222.56 238.18 226.85 241.52 230.84 240.21 C 233.67 239.09 236.56 239.77 239.36 240.60 C 239.42 232.88 239.40 225.17 239.36 217.46 C 237.09 217.58 234.83 217.87 232.61 218.35 M 304.30 217.89 C 303.18 225.33 304.02 232.88 303.71 240.36 C 305.93 240.43 308.16 240.45 310.40 240.46 C 310.46 238.21 310.52 235.97 310.71 233.73 C 311.87 235.92 312.82 238.22 313.81 240.50 C 315.99 240.47 318.18 240.44 320.36 240.37 C 319.30 237.51 317.91 234.79 316.85 231.93 C 317.36 228.94 319.11 226.33 320.16 223.51 C 317.93 223.46 315.71 223.44 313.49 223.45 C 312.60 225.39 311.72 227.33 310.78 229.25 C 310.31 225.34 310.48 221.41 310.43 217.49 C 308.38 217.60 306.34 217.73 304.30 217.89 M 274.31 219.11 C 274.62 220.68 274.02 222.94 275.98 223.60 C 278.24 223.33 282.16 223.41 281.64 220.13 C 280.14 217.37 276.73 218.62 274.31 219.11 M 444.75 220.01 C 442.86 221.55 442.19 224.05 441.13 226.15 C 441.91 226.86 442.70 227.58 443.50 228.30 C 443.36 231.64 443.07 235.02 443.62 238.34 C 445.46 240.81 448.88 240.38 451.61 240.50 C 451.50 238.97 451.85 237.29 450.94 235.95 C 448.85 232.78 448.67 227.85 452.43 225.87 C 451.00 223.73 449.74 221.49 448.91 219.05 C 447.51 219.34 446.06 219.46 444.75 220.01 M 208.56 223.66 C 201.88 224.95 200.47 234.55 205.25 238.70 C 207.96 240.63 211.63 240.93 214.79 240.11 C 221.09 238.30 222.34 228.64 217.12 224.94 C 214.71 223.01 211.42 223.27 208.56 223.66 M 241.36 223.61 C 242.63 227.95 243.51 232.39 244.70 236.75 C 245.10 238.25 246.44 239.21 247.36 240.39 C 245.48 241.00 243.58 241.53 241.67 242.03 C 241.65 243.47 241.64 244.91 241.63 246.36 C 245.57 246.11 251.24 247.90 253.41 243.42 C 255.98 237.06 256.79 230.13 258.71 223.56 C 256.63 223.48 254.55 223.43 252.47 223.38 C 251.53 226.98 251.20 230.72 249.93 234.24 C 249.03 230.68 248.49 227.05 247.92 223.44 C 245.73 223.45 243.55 223.48 241.36 223.61 M 385.56 223.50 C 385.63 225.08 385.70 226.66 385.75 228.25 C 387.54 228.39 389.32 228.53 391.11 228.70 C 389.19 232.71 384.23 235.57 384.73 240.45 C 390.21 240.48 395.69 240.44 401.18 240.47 C 401.20 238.82 401.20 237.16 401.18 235.51 C 398.96 235.45 396.75 235.39 394.54 235.25 C 396.31 231.05 401.21 228.45 400.94 223.49 C 395.81 223.41 390.68 223.43 385.56 223.50 M 151.13 225.06 C 149.03 226.27 149.40 228.88 149.65 230.90 C 151.60 234.29 155.99 233.95 159.23 235.22 C 156.03 235.50 152.82 235.38 149.62 235.39 C 149.57 236.40 149.47 238.41 149.41 239.42 C 153.82 240.44 158.88 241.46 163.05 239.14 C 165.66 237.15 165.66 233.62 164.20 230.94 C 161.92 230.34 159.64 229.70 157.47 228.79 C 159.43 228.55 161.42 228.50 163.41 228.47 C 163.81 227.32 164.23 226.18 164.64 225.04 C 160.49 223.05 155.16 222.55 151.13 225.06 M 168.97 225.98 C 166.79 227.99 167.39 231.27 167.40 233.92 C 167.43 240.13 177.21 242.97 180.83 238.28 C 180.45 237.54 179.69 236.05 179.31 235.30 C 177.65 235.35 176.00 235.39 174.34 235.42 C 174.34 233.19 174.34 230.97 174.35 228.75 C 176.13 228.58 177.91 228.48 179.69 228.35 C 179.48 226.79 180.29 224.83 179.07 223.59 C 175.60 223.16 171.52 223.20 168.97 225.98 M 274.70 224.84 C 274.42 230.04 274.67 235.25 274.56 240.46 C 271.92 241.41 270.85 243.69 271.36 246.42 C 273.24 246.42 275.13 246.51 277.02 246.34 C 279.87 245.77 281.50 242.80 281.35 240.05 C 281.35 234.44 281.31 228.82 281.29 223.21 C 279.02 223.36 276.74 223.78 274.70 224.84 M 285.34 224.46 C 285.48 225.84 285.62 227.22 285.76 228.60 C 288.43 228.57 291.11 228.52 293.78 228.46 C 293.77 228.70 293.75 229.18 293.74 229.42 C 290.44 229.32 286.42 229.39 284.48 232.56 C 282.93 234.62 284.29 237.04 284.76 239.21 C 287.36 240.37 290.19 240.94 292.92 239.75 C 295.52 238.59 298.08 240.07 300.56 240.79 C 300.61 236.03 300.96 231.22 300.42 226.48 C 296.97 221.98 290.15 223.28 285.34 224.46 M 328.17 223.66 C 321.48 224.71 320.59 234.24 324.58 238.52 C 328.58 241.67 334.08 240.37 338.61 239.26 C 338.28 237.90 337.94 236.55 337.60 235.21 C 334.67 235.40 331.72 235.53 328.80 235.21 C 332.05 234.23 335.82 234.40 338.52 232.05 C 338.87 229.85 339.34 227.23 338.13 225.24 C 335.36 222.98 331.50 223.28 328.17 223.66 M 346.76 239.61 C 348.01 241.44 351.37 239.99 353.43 240.44 C 353.49 236.69 353.19 232.92 353.57 229.18 C 354.02 228.01 357.04 227.98 357.19 229.35 C 357.52 233.04 357.22 236.75 357.33 240.45 C 359.40 240.46 361.48 240.46 363.56 240.46 C 363.46 235.64 363.70 230.81 363.45 226.00 C 361.36 222.39 356.77 223.40 353.50 224.42 C 351.29 225.17 349.33 223.17 347.12 223.47 C 346.20 228.74 346.79 234.26 346.76 239.61 M 366.79 227.66 C 366.03 231.21 365.64 235.69 368.50 238.46 C 372.23 241.52 377.43 240.48 381.73 239.49 C 381.74 238.44 381.74 236.34 381.75 235.28 C 378.76 235.37 375.76 235.51 372.78 235.22 C 375.99 234.17 379.72 234.27 382.44 232.04 C 382.85 229.43 383.72 225.45 380.48 224.35 C 376.00 222.58 369.26 222.78 366.79 227.66 M 403.72 224.24 C 403.40 229.62 403.72 235.02 403.58 240.42 C 405.78 240.44 407.99 240.45 410.20 240.48 C 410.51 236.55 410.12 232.59 410.55 228.67 C 411.77 228.53 413.01 228.50 414.25 228.46 C 414.25 232.45 414.25 236.43 414.25 240.42 C 416.31 240.44 418.38 240.45 420.45 240.47 C 420.38 235.28 420.52 230.08 420.27 224.90 C 416.99 223.01 413.29 223.35 409.84 224.52 C 407.79 225.27 404.96 222.09 403.72 224.24 M 424.22 224.38 C 424.36 225.79 424.40 227.21 424.57 228.62 C 427.46 228.53 430.36 228.46 433.25 228.50 C 430.33 229.57 426.87 229.35 424.33 231.30 C 421.45 233.28 421.82 238.71 425.28 239.86 C 428.15 241.36 431.28 239.91 433.95 238.68 C 435.68 239.58 437.49 240.32 439.38 240.83 C 439.52 236.55 439.57 232.26 439.45 227.98 C 439.54 226.50 438.36 225.24 437.12 224.63 C 433.11 222.63 428.40 223.41 424.22 224.38 M 455.93 225.95 C 453.74 227.96 454.32 231.25 454.33 233.92 C 454.25 236.50 456.10 238.80 458.47 239.66 C 462.42 241.30 466.94 240.43 470.70 238.65 C 470.10 237.63 470.37 235.81 469.04 235.41 C 466.28 235.27 463.51 235.49 460.76 235.21 C 463.97 234.18 467.75 234.37 470.39 231.99 C 470.81 229.36 471.62 225.42 468.35 224.38 C 464.43 222.78 459.10 222.79 455.93 225.95 M 259.63 235.60 C 260.17 238.69 261.94 241.50 261.49 244.77 C 262.08 244.76 263.26 244.75 263.86 244.74 C 266.12 241.44 267.35 237.59 266.41 233.58 C 263.98 233.53 260.83 232.79 259.63 235.60 Z" />
<path fill="#ffffff" opacity="1.00" d=" M 134.65 136.92 C 136.65 134.47 140.07 136.20 142.61 136.67 C 142.62 138.89 142.62 141.11 142.60 143.34 C 140.30 143.97 137.96 144.44 135.58 144.69 C 134.49 142.24 134.47 139.55 134.65 136.92 Z" />
<path fill="#ffffff" opacity="1.00" d=" M 391.42 142.62 C 393.65 142.18 396.71 140.49 398.37 142.89 C 398.12 147.77 399.26 152.94 397.39 157.59 C 395.39 157.64 393.40 157.67 391.42 157.69 C 391.39 152.66 391.40 147.64 391.42 142.62 Z" />
<path fill="#ffffff" opacity="1.00" d=" M 431.31 142.55 C 433.37 141.95 435.50 141.63 437.65 141.67 C 437.57 146.67 437.98 151.71 437.46 156.69 C 436.30 158.52 433.22 157.26 431.33 157.76 C 431.25 152.69 431.28 147.62 431.31 142.55 Z" />
<path fill="#ffffff" opacity="1.00" d=" M 178.46 150.70 C 180.68 151.05 183.77 149.70 185.18 152.06 C 185.40 153.56 185.56 155.08 185.66 156.60 C 183.64 156.65 181.63 156.66 179.61 156.65 C 178.68 154.79 178.40 152.76 178.46 150.70 Z" />
<path fill="#ffffff" opacity="1.00" d=" M 364.54 191.95 C 372.96 190.48 381.51 190.76 390.02 190.72 C 392.95 190.89 396.19 189.59 398.91 191.03 C 399.73 193.15 396.67 192.06 395.55 192.49 C 385.21 192.52 374.83 193.11 364.54 191.95 Z" />
<path fill="#ffffff" opacity="1.00" d=" M 229.39 227.54 C 230.47 227.49 231.55 227.45 232.64 227.41 C 232.64 230.08 232.62 232.75 232.55 235.42 C 231.49 235.42 230.42 235.43 229.36 235.45 C 229.33 232.81 229.33 230.17 229.39 227.54 Z" />
<path fill="#ffffff" opacity="1.00" d=" M 209.56 228.60 C 210.70 228.53 211.84 228.47 212.99 228.40 C 213.10 230.72 214.19 233.65 212.10 235.40 C 211.44 235.37 210.12 235.30 209.46 235.27 C 209.51 233.04 209.53 230.82 209.56 228.60 Z" />
<path fill="#ffffff" opacity="1.00" d=" M 329.41 228.51 C 330.53 228.48 331.65 228.44 332.77 228.41 C 332.75 228.92 332.70 229.95 332.68 230.47 C 331.60 230.45 330.52 230.44 329.44 230.44 C 329.43 229.96 329.42 228.99 329.41 228.51 Z" />
<path fill="#ffffff" opacity="1.00" d=" M 373.38 228.49 C 374.49 228.47 375.60 228.45 376.72 228.43 C 376.70 228.93 376.66 229.94 376.64 230.45 C 375.56 230.44 374.48 230.45 373.41 230.45 C 373.40 229.96 373.39 228.98 373.38 228.49 Z" />
<path fill="#ffffff" opacity="1.00" d=" M 460.67 228.68 C 462.00 228.58 463.33 228.48 464.67 228.39 C 464.65 228.91 464.61 229.96 464.60 230.48 C 463.29 230.42 461.99 230.36 460.69 230.30 C 460.69 229.89 460.68 229.09 460.67 228.68 Z" />
<path fill="#ffffff" opacity="1.00" d=" M 289.78 233.71 C 291.40 233.59 293.01 233.49 294.63 233.41 C 294.53 233.91 294.32 234.92 294.22 235.42 C 292.76 235.38 291.31 235.34 289.85 235.29 C 289.84 234.89 289.80 234.11 289.78 233.71 Z" />
<path fill="#ffffff" opacity="1.00" d=" M 427.83 233.86 C 429.48 233.68 431.13 233.48 432.79 233.33 C 432.71 233.88 432.55 234.98 432.47 235.52 C 430.94 235.40 429.41 235.26 427.89 235.14 C 427.87 234.82 427.85 234.18 427.83 233.86 Z" />
</g>
<g id="#000000ff">
<path fill="#000000" opacity="1.00" d=" M 82.36 61.55 C 84.21 61.27 86.09 61.31 87.96 61.28 C 230.32 61.28 372.68 61.28 515.03 61.28 C 525.69 60.47 535.84 70.29 535.41 80.95 C 535.40 146.32 535.42 211.69 535.40 277.06 C 534.91 284.72 529.35 291.84 521.99 294.12 C 517.56 296.03 512.67 295.31 508.00 295.41 C 367.65 295.41 227.29 295.41 86.94 295.41 C 81.62 295.47 76.51 292.93 72.59 289.46 C 69.19 285.85 67.18 280.98 66.70 276.08 C 66.66 211.37 66.70 146.67 66.68 81.96 C 66.43 72.60 73.24 63.68 82.36 61.55 M 80.55 69.53 C 76.17 71.97 73.76 77.04 73.68 81.94 C 73.67 144.29 73.69 206.64 73.67 269.00 C 73.59 273.45 73.48 278.21 75.70 282.24 C 78.13 285.95 82.41 288.73 86.95 288.53 C 229.31 288.54 371.68 288.54 514.05 288.53 C 521.47 289.30 528.98 282.64 528.42 275.04 C 528.43 210.34 528.42 145.64 528.43 80.94 C 528.78 73.93 522.05 67.38 515.01 68.22 C 372.34 68.19 229.66 68.22 86.99 68.20 C 84.80 68.27 82.41 68.17 80.55 69.53 Z" />
<path fill="#000000" opacity="1.00" d=" M 338.55 122.76 C 342.88 122.66 347.22 122.40 351.55 122.26 C 351.56 126.13 351.54 129.99 351.56 133.86 C 356.19 132.30 361.19 131.58 366.03 132.57 C 368.84 133.33 371.72 135.77 371.50 138.92 C 371.60 148.12 371.39 157.33 371.60 166.53 C 367.32 166.39 362.49 167.54 358.55 166.03 C 358.53 158.28 358.60 150.52 358.55 142.76 C 356.24 142.71 353.77 142.41 351.77 143.83 C 351.21 151.41 351.69 159.03 351.57 166.62 C 347.20 166.71 342.83 166.70 338.46 166.66 C 338.55 152.03 338.36 137.39 338.55 122.76 Z" />
<path fill="#000000" opacity="1.00" d=" M 437.71 132.70 C 438.21 129.49 436.26 125.12 439.04 122.81 C 442.91 122.49 446.81 122.46 450.69 122.26 C 450.70 137.07 450.70 151.89 450.68 166.70 C 447.43 166.97 444.22 166.77 441.77 164.43 C 436.75 167.63 430.23 168.98 424.67 166.34 C 420.18 164.55 418.19 159.48 417.45 155.06 C 417.19 148.90 416.28 141.73 420.78 136.77 C 425.01 132.01 431.95 132.70 437.71 132.70 M 431.31 142.55 C 431.28 147.62 431.25 152.69 431.33 157.76 C 433.22 157.26 436.30 158.52 437.46 156.69 C 437.98 151.71 437.57 146.67 437.65 141.67 C 435.50 141.63 433.37 141.95 431.31 142.55 Z" />
<path fill="#000000" opacity="1.00" d=" M 171.17 126.29 C 177.33 123.21 184.11 125.80 190.60 125.82 C 189.86 129.09 189.30 132.39 188.55 135.66 C 185.21 135.66 181.81 135.53 178.63 136.72 C 178.57 137.68 178.45 139.60 178.39 140.56 C 186.48 140.90 194.58 140.63 202.67 140.71 C 202.67 144.00 202.38 147.29 201.53 150.48 C 199.94 150.68 198.36 150.92 196.80 151.20 C 196.59 158.63 196.76 166.05 196.71 173.48 C 194.04 173.69 191.39 174.48 188.71 174.02 C 188.65 171.09 188.03 168.23 187.24 165.42 C 181.17 166.80 174.47 169.19 168.44 166.46 C 164.76 164.95 163.02 160.80 163.21 157.03 C 163.35 153.12 162.35 148.43 165.38 145.35 C 166.71 143.81 168.58 142.94 170.31 141.94 C 168.64 141.09 166.98 140.23 165.34 139.34 C 165.30 134.54 166.21 128.46 171.17 126.29 M 178.46 150.70 C 178.40 152.76 178.68 154.79 179.61 156.65 C 181.63 156.66 183.64 156.65 185.66 156.60 C 185.56 155.08 185.40 153.56 185.18 152.06 C 183.77 149.70 180.68 151.05 178.46 150.70 Z" />
<path fill="#000000" opacity="1.00" d=" M 207.82 125.74 C 213.69 123.96 220.08 124.57 226.09 125.29 C 227.26 132.20 229.40 138.90 230.78 145.76 C 231.13 145.64 231.84 145.40 232.19 145.28 C 233.42 138.56 235.53 132.04 236.74 125.32 C 242.54 124.44 248.61 124.31 254.41 125.31 C 254.32 131.23 254.68 137.13 255.36 143.00 C 255.21 150.90 256.54 158.68 256.63 166.57 C 252.03 166.78 247.42 166.73 242.82 166.58 C 242.43 159.93 242.76 153.24 242.16 146.60 C 238.89 152.78 238.44 160.00 236.37 166.62 C 233.04 166.71 229.72 166.71 226.39 166.62 C 224.46 159.97 223.61 152.96 220.78 146.60 C 220.31 153.29 220.25 160.00 219.56 166.67 C 215.13 166.69 210.71 166.75 206.29 166.59 C 206.58 161.39 206.34 156.15 207.25 151.00 C 207.60 142.59 207.88 134.16 207.82 125.74 Z" />
<path fill="#000000" opacity="1.00" d=" M 122.18 125.17 C 129.79 125.20 137.41 125.01 145.02 125.26 C 149.01 125.29 153.13 127.31 154.94 130.99 C 157.16 134.62 156.59 139.01 156.56 143.06 C 156.55 147.11 153.96 150.53 150.97 153.02 C 152.73 157.76 155.47 162.03 157.82 166.48 C 153.05 166.75 148.24 166.87 143.47 166.52 C 141.31 162.69 139.84 158.50 138.08 154.47 C 137.22 154.48 135.49 154.49 134.63 154.49 C 134.64 158.55 134.63 162.60 134.67 166.66 C 130.51 166.69 126.35 166.67 122.19 166.71 C 122.16 152.86 122.18 139.02 122.18 125.17 M 134.65 136.92 C 134.47 139.55 134.49 142.24 135.58 144.69 C 137.96 144.44 140.30 143.97 142.60 143.34 C 142.62 141.11 142.62 138.89 142.61 136.67 C 140.07 136.20 136.65 134.47 134.65 136.92 Z" />
<path fill="#000000" opacity="1.00" d=" M 276.08 134.03 C 283.89 130.69 292.99 131.28 300.76 134.41 C 300.21 137.20 299.60 139.98 299.27 142.81 C 294.33 142.21 289.39 141.30 284.40 141.84 C 284.41 142.48 284.43 143.78 284.44 144.43 C 288.87 144.38 293.52 144.47 297.53 146.61 C 305.38 150.72 303.80 165.03 294.90 166.79 C 287.11 168.56 279.02 167.57 271.27 166.13 C 271.20 162.82 271.44 159.48 272.53 156.33 C 277.98 158.16 283.77 157.63 289.43 157.66 C 289.55 157.13 289.79 156.07 289.92 155.54 C 283.75 154.94 275.48 155.45 272.23 148.92 C 270.45 143.94 270.56 136.65 276.08 134.03 Z" />
<path fill="#000000" opacity="1.00" d=" M 392.31 131.94 C 396.12 131.36 400.06 132.20 403.66 133.43 C 408.70 135.30 411.99 140.68 411.75 145.99 C 411.63 151.19 412.72 157.04 409.42 161.53 C 406.77 165.65 401.73 167.50 397.01 167.63 C 391.84 167.90 386.11 167.42 381.98 163.97 C 376.46 158.24 376.59 149.34 378.22 142.09 C 379.70 135.67 386.15 132.26 392.31 131.94 M 391.42 142.62 C 391.40 147.64 391.39 152.66 391.42 157.69 C 393.40 157.67 395.39 157.64 397.39 157.59 C 399.26 152.94 398.12 147.77 398.37 142.89 C 396.71 140.49 393.65 142.18 391.42 142.62 Z" />
<path fill="#000000" opacity="1.00" d=" M 312.62 134.56 C 318.35 131.09 325.42 132.16 331.76 132.70 C 331.63 135.67 332.14 138.96 330.85 141.70 C 327.45 142.03 323.70 140.95 320.70 143.07 C 320.03 147.86 320.58 152.72 320.37 157.54 C 324.19 157.78 328.02 157.68 331.82 157.23 C 332.29 160.24 332.42 163.28 332.57 166.32 C 326.12 168.33 318.69 168.42 312.62 165.18 C 307.67 162.00 306.09 155.56 306.33 150.01 C 306.03 144.33 307.52 137.82 312.62 134.56 Z" />
<path fill="#000000" opacity="1.00" d=" M 475.77 134.11 C 476.07 133.78 476.67 133.12 476.97 132.79 C 480.89 132.59 484.82 132.77 488.75 132.73 C 488.10 139.68 485.61 146.30 484.18 153.11 C 482.22 159.80 481.63 167.03 478.11 173.16 C 476.38 176.41 472.48 177.61 469.03 177.64 C 464.52 177.73 460.01 177.67 455.50 177.60 C 455.49 174.70 455.51 171.80 455.52 168.90 C 460.38 168.08 466.18 167.90 469.45 163.63 C 466.88 163.31 464.33 162.93 461.80 162.44 C 460.23 152.57 456.89 143.06 455.12 133.22 C 459.30 133.08 463.48 133.13 467.67 133.17 C 469.11 140.14 470.61 147.16 470.86 154.30 C 471.61 154.31 472.37 154.33 473.13 154.35 C 473.28 147.52 475.03 140.88 475.77 134.11 Z" />
<path fill="#000000" opacity="1.00" d=" M 255.48 191.09 C 260.29 190.28 265.17 190.85 270.02 190.61 C 278.46 189.63 286.92 193.23 295.26 190.63 C 307.44 190.40 319.62 190.97 331.81 190.65 C 334.21 190.64 336.61 190.68 339.02 190.71 C 347.56 190.55 355.98 193.03 364.54 191.95 C 374.83 193.11 385.21 192.52 395.55 192.49 L 396.00 193.49 L 396.43 194.51 C 391.61 194.58 386.74 194.25 382.00 195.33 C 376.93 195.59 371.83 195.65 366.75 195.51 C 362.43 195.38 358.09 195.64 353.85 196.51 C 351.86 201.36 345.98 200.17 341.78 200.53 C 333.84 200.19 325.81 201.19 317.94 199.78 C 305.31 199.08 292.61 200.04 280.01 198.74 C 265.01 198.65 250.00 198.64 234.99 198.77 C 228.68 199.47 222.30 199.64 215.96 199.21 C 209.71 198.01 203.32 198.68 197.01 198.39 C 190.95 198.25 184.82 198.10 178.84 199.26 C 174.38 199.61 170.12 198.14 167.01 194.89 C 171.12 194.49 175.35 195.05 179.27 193.44 C 187.18 192.92 195.15 193.96 203.03 192.80 C 212.02 192.50 221.03 192.83 230.00 192.12 C 238.45 191.02 247.01 191.89 255.48 191.09 Z" />
</g>
<g id="#262325ff">
<path fill="#262325" opacity="1.00" d=" M 383.82 189.21 C 389.82 188.35 395.89 188.77 401.92 188.54 C 401.39 189.56 400.83 190.55 400.24 191.54 C 413.16 192.16 426.12 191.39 439.06 191.73 C 442.11 192.19 445.11 192.92 448.16 193.43 C 453.15 194.23 458.27 193.18 463.24 194.20 C 458.04 194.59 452.74 194.75 447.61 193.73 C 442.38 192.68 437.04 193.44 431.77 193.44 C 421.51 193.28 411.23 193.48 401.00 194.36 C 399.38 194.08 397.09 195.09 396.00 193.49 L 395.55 192.49 C 396.67 192.06 399.73 193.15 398.91 191.03 C 396.19 189.59 392.95 190.89 390.02 190.72 C 381.51 190.76 372.96 190.48 364.54 191.95 C 355.98 193.03 347.56 190.55 339.02 190.71 C 336.61 190.68 334.21 190.64 331.81 190.65 C 338.20 190.27 344.62 190.52 350.99 189.81 C 361.93 189.49 372.89 189.90 383.82 189.21 Z" />
<path fill="#262325" opacity="1.00" d=" M 353.85 196.51 C 358.09 195.64 362.43 195.38 366.75 195.51 C 366.61 196.00 366.32 196.98 366.18 197.47 C 367.60 197.46 369.03 197.45 370.45 197.40 C 370.45 197.93 370.46 198.98 370.46 199.51 C 378.43 199.55 386.54 199.32 394.33 201.24 C 383.26 202.40 372.11 201.20 361.00 201.46 C 354.57 201.72 348.19 200.76 341.78 200.53 C 345.98 200.17 351.86 201.36 353.85 196.51 Z" />
<path fill="#262325" opacity="1.00" d=" M 417.73 197.59 C 426.86 196.83 436.11 197.29 445.26 197.77 C 439.92 199.15 434.40 198.03 429.00 197.78 C 425.24 197.55 421.47 197.89 417.73 197.59 Z" />
<path fill="#262325" opacity="1.00" d=" M 326.94 221.33 C 328.95 219.01 331.38 216.94 334.35 216.00 C 335.20 217.08 336.05 218.16 336.91 219.25 C 334.27 221.85 330.39 222.15 326.94 221.33 Z" />
<path fill="#262325" opacity="1.00" d=" M 428.59 219.68 C 430.82 218.24 432.93 216.33 435.72 216.14 C 436.19 217.54 436.57 218.97 436.85 220.43 C 434.10 221.47 431.17 221.79 428.26 221.84 C 428.34 221.30 428.50 220.22 428.59 219.68 Z" />
<path fill="#262325" opacity="1.00" d=" M 183.53 217.73 C 185.75 217.69 187.96 217.64 190.18 217.64 C 190.17 219.67 190.17 221.70 190.16 223.74 C 193.39 223.45 196.91 222.94 199.64 225.15 C 199.72 230.23 199.64 235.31 199.73 240.39 C 197.63 240.43 195.54 240.42 193.44 240.33 C 193.55 236.33 193.56 232.32 193.48 228.31 C 192.55 228.44 190.70 228.69 189.77 228.82 C 189.43 232.66 189.64 236.52 189.68 240.37 C 187.56 240.42 185.44 240.42 183.33 240.36 C 183.52 232.82 183.20 225.27 183.53 217.73 Z" />
<path fill="#262325" opacity="1.00" d=" M 232.61 218.35 C 234.83 217.87 237.09 217.58 239.36 217.46 C 239.40 225.17 239.42 232.88 239.36 240.60 C 236.56 239.77 233.67 239.09 230.84 240.21 C 226.85 241.52 222.56 238.18 222.42 234.09 C 222.31 231.11 221.75 227.47 224.29 225.29 C 226.38 222.86 229.82 223.59 232.65 223.29 C 232.63 221.64 232.62 220.00 232.61 218.35 M 229.39 227.54 C 229.33 230.17 229.33 232.81 229.36 235.45 C 230.42 235.43 231.49 235.42 232.55 235.42 C 232.62 232.75 232.64 230.08 232.64 227.41 C 231.55 227.45 230.47 227.49 229.39 227.54 Z" />
<path fill="#262325" opacity="1.00" d=" M 304.30 217.89 C 306.34 217.73 308.38 217.60 310.43 217.49 C 310.48 221.41 310.31 225.34 310.78 229.25 C 311.72 227.33 312.60 225.39 313.49 223.45 C 315.71 223.44 317.93 223.46 320.16 223.51 C 319.11 226.33 317.36 228.94 316.85 231.93 C 317.91 234.79 319.30 237.51 320.36 240.37 C 318.18 240.44 315.99 240.47 313.81 240.50 C 312.82 238.22 311.87 235.92 310.71 233.73 C 310.52 235.97 310.46 238.21 310.40 240.46 C 308.16 240.45 305.93 240.43 303.71 240.36 C 304.02 232.88 303.18 225.33 304.30 217.89 Z" />
<path fill="#262325" opacity="1.00" d=" M 274.31 219.11 C 276.73 218.62 280.14 217.37 281.64 220.13 C 282.16 223.41 278.24 223.33 275.98 223.60 C 274.02 222.94 274.62 220.68 274.31 219.11 Z" />
<path fill="#262325" opacity="1.00" d=" M 444.75 220.01 C 446.06 219.46 447.51 219.34 448.91 219.05 C 449.74 221.49 451.00 223.73 452.43 225.87 C 448.67 227.85 448.85 232.78 450.94 235.95 C 451.85 237.29 451.50 238.97 451.61 240.50 C 448.88 240.38 445.46 240.81 443.62 238.34 C 443.07 235.02 443.36 231.64 443.50 228.30 C 442.70 227.58 441.91 226.86 441.13 226.15 C 442.19 224.05 442.86 221.55 444.75 220.01 Z" />
<path fill="#262325" opacity="1.00" d=" M 208.56 223.66 C 211.42 223.27 214.71 223.01 217.12 224.94 C 222.34 228.64 221.09 238.30 214.79 240.11 C 211.63 240.93 207.96 240.63 205.25 238.70 C 200.47 234.55 201.88 224.95 208.56 223.66 M 209.56 228.60 C 209.53 230.82 209.51 233.04 209.46 235.27 C 210.12 235.30 211.44 235.37 212.10 235.40 C 214.19 233.65 213.10 230.72 212.99 228.40 C 211.84 228.47 210.70 228.53 209.56 228.60 Z" />
<path fill="#262325" opacity="1.00" d=" M 241.36 223.61 C 243.55 223.48 245.73 223.45 247.92 223.44 C 248.49 227.05 249.03 230.68 249.93 234.24 C 251.20 230.72 251.53 226.98 252.47 223.38 C 254.55 223.43 256.63 223.48 258.71 223.56 C 256.79 230.13 255.98 237.06 253.41 243.42 C 251.24 247.90 245.57 246.11 241.63 246.36 C 241.64 244.91 241.65 243.47 241.67 242.03 C 243.58 241.53 245.48 241.00 247.36 240.39 C 246.44 239.21 245.10 238.25 244.70 236.75 C 243.51 232.39 242.63 227.95 241.36 223.61 Z" />
<path fill="#262325" opacity="1.00" d=" M 385.56 223.50 C 390.68 223.43 395.81 223.41 400.94 223.49 C 401.21 228.45 396.31 231.05 394.54 235.25 C 396.75 235.39 398.96 235.45 401.18 235.51 C 401.20 237.16 401.20 238.82 401.18 240.47 C 395.69 240.44 390.21 240.48 384.73 240.45 C 384.23 235.57 389.19 232.71 391.11 228.70 C 389.32 228.53 387.54 228.39 385.75 228.25 C 385.70 226.66 385.63 225.08 385.56 223.50 Z" />
<path fill="#262325" opacity="1.00" d=" M 151.13 225.06 C 155.16 222.55 160.49 223.05 164.64 225.04 C 164.23 226.18 163.81 227.32 163.41 228.47 C 161.42 228.50 159.43 228.55 157.47 228.79 C 159.64 229.70 161.92 230.34 164.20 230.94 C 165.66 233.62 165.66 237.15 163.05 239.14 C 158.88 241.46 153.82 240.44 149.41 239.42 C 149.47 238.41 149.57 236.40 149.62 235.39 C 152.82 235.38 156.03 235.50 159.23 235.22 C 155.99 233.95 151.60 234.29 149.65 230.90 C 149.40 228.88 149.03 226.27 151.13 225.06 Z" />
<path fill="#262325" opacity="1.00" d=" M 168.97 225.98 C 171.52 223.20 175.60 223.16 179.07 223.59 C 180.29 224.83 179.48 226.79 179.69 228.35 C 177.91 228.48 176.13 228.58 174.35 228.75 C 174.34 230.97 174.34 233.19 174.34 235.42 C 176.00 235.39 177.65 235.35 179.31 235.30 C 179.69 236.05 180.45 237.54 180.83 238.28 C 177.21 242.97 167.43 240.13 167.40 233.92 C 167.39 231.27 166.79 227.99 168.97 225.98 Z" />
<path fill="#262325" opacity="1.00" d=" M 274.70 224.84 C 276.74 223.78 279.02 223.36 281.29 223.21 C 281.31 228.82 281.35 234.44 281.35 240.05 C 281.50 242.80 279.87 245.77 277.02 246.34 C 275.13 246.51 273.24 246.42 271.36 246.42 C 270.85 243.69 271.92 241.41 274.56 240.46 C 274.67 235.25 274.42 230.04 274.70 224.84 Z" />
<path fill="#262325" opacity="1.00" d=" M 285.34 224.46 C 290.15 223.28 296.97 221.98 300.42 226.48 C 300.96 231.22 300.61 236.03 300.56 240.79 C 298.08 240.07 295.52 238.59 292.92 239.75 C 290.19 240.94 287.36 240.37 284.76 239.21 C 284.29 237.04 282.93 234.62 284.48 232.56 C 286.42 229.39 290.44 229.32 293.74 229.42 C 293.75 229.18 293.77 228.70 293.78 228.46 C 291.11 228.52 288.43 228.57 285.76 228.60 C 285.62 227.22 285.48 225.84 285.34 224.46 M 289.78 233.71 C 289.80 234.11 289.84 234.89 289.85 235.29 C 291.31 235.34 292.76 235.38 294.22 235.42 C 294.32 234.92 294.53 233.91 294.63 233.41 C 293.01 233.49 291.40 233.59 289.78 233.71 Z" />
<path fill="#262325" opacity="1.00" d=" M 328.17 223.66 C 331.50 223.28 335.36 222.98 338.13 225.24 C 339.34 227.23 338.87 229.85 338.52 232.05 C 335.82 234.40 332.05 234.23 328.80 235.21 C 331.72 235.53 334.67 235.40 337.60 235.21 C 337.94 236.55 338.28 237.90 338.61 239.26 C 334.08 240.37 328.58 241.67 324.58 238.52 C 320.59 234.24 321.48 224.71 328.17 223.66 M 329.41 228.51 C 329.42 228.99 329.43 229.96 329.44 230.44 C 330.52 230.44 331.60 230.45 332.68 230.47 C 332.70 229.95 332.75 228.92 332.77 228.41 C 331.65 228.44 330.53 228.48 329.41 228.51 Z" />
<path fill="#262325" opacity="1.00" d=" M 346.76 239.61 C 346.79 234.26 346.20 228.74 347.12 223.47 C 349.33 223.17 351.29 225.17 353.50 224.42 C 356.77 223.40 361.36 222.39 363.45 226.00 C 363.70 230.81 363.46 235.64 363.56 240.46 C 361.48 240.46 359.40 240.46 357.33 240.45 C 357.22 236.75 357.52 233.04 357.19 229.35 C 357.04 227.98 354.02 228.01 353.57 229.18 C 353.19 232.92 353.49 236.69 353.43 240.44 C 351.37 239.99 348.01 241.44 346.76 239.61 Z" />
<path fill="#262325" opacity="1.00" d=" M 366.79 227.66 C 369.26 222.78 376.00 222.58 380.48 224.35 C 383.72 225.45 382.85 229.43 382.44 232.04 C 379.72 234.27 375.99 234.17 372.78 235.22 C 375.76 235.51 378.76 235.37 381.75 235.28 C 381.74 236.34 381.74 238.44 381.73 239.49 C 377.43 240.48 372.23 241.52 368.50 238.46 C 365.64 235.69 366.03 231.21 366.79 227.66 M 373.38 228.49 C 373.39 228.98 373.40 229.96 373.41 230.45 C 374.48 230.45 375.56 230.44 376.64 230.45 C 376.66 229.94 376.70 228.93 376.72 228.43 C 375.60 228.45 374.49 228.47 373.38 228.49 Z" />
<path fill="#262325" opacity="1.00" d=" M 403.72 224.24 C 404.96 222.09 407.79 225.27 409.84 224.52 C 413.29 223.35 416.99 223.01 420.27 224.90 C 420.52 230.08 420.38 235.28 420.45 240.47 C 418.38 240.45 416.31 240.44 414.25 240.42 C 414.25 236.43 414.25 232.45 414.25 228.46 C 413.01 228.50 411.77 228.53 410.55 228.67 C 410.12 232.59 410.51 236.55 410.20 240.48 C 407.99 240.45 405.78 240.44 403.58 240.42 C 403.72 235.02 403.40 229.62 403.72 224.24 Z" />
<path fill="#262325" opacity="1.00" d=" M 424.22 224.38 C 428.40 223.41 433.11 222.63 437.12 224.63 C 438.36 225.24 439.54 226.50 439.45 227.98 C 439.57 232.26 439.52 236.55 439.38 240.83 C 437.49 240.32 435.68 239.58 433.95 238.68 C 431.28 239.91 428.15 241.36 425.28 239.86 C 421.82 238.71 421.45 233.28 424.33 231.30 C 426.87 229.35 430.33 229.57 433.25 228.50 C 430.36 228.46 427.46 228.53 424.57 228.62 C 424.40 227.21 424.36 225.79 424.22 224.38 M 427.83 233.86 C 427.85 234.18 427.87 234.82 427.89 235.14 C 429.41 235.26 430.94 235.40 432.47 235.52 C 432.55 234.98 432.71 233.88 432.79 233.33 C 431.13 233.48 429.48 233.68 427.83 233.86 Z" />
<path fill="#262325" opacity="1.00" d=" M 455.93 225.95 C 459.10 222.79 464.43 222.78 468.35 224.38 C 471.62 225.42 470.81 229.36 470.39 231.99 C 467.75 234.37 463.97 234.18 460.76 235.21 C 463.51 235.49 466.28 235.27 469.04 235.41 C 470.37 235.81 470.10 237.63 470.70 238.65 C 466.94 240.43 462.42 241.30 458.47 239.66 C 456.10 238.80 454.25 236.50 454.33 233.92 C 454.32 231.25 453.74 227.96 455.93 225.95 M 460.67 228.68 C 460.68 229.09 460.69 229.89 460.69 230.30 C 461.99 230.36 463.29 230.42 464.60 230.48 C 464.61 229.96 464.65 228.91 464.67 228.39 C 463.33 228.48 462.00 228.58 460.67 228.68 Z" />
<path fill="#262325" opacity="1.00" d=" M 259.63 235.60 C 260.83 232.79 263.98 233.53 266.41 233.58 C 267.35 237.59 266.12 241.44 263.86 244.74 C 263.26 244.75 262.08 244.76 261.49 244.77 C 261.94 241.50 260.17 238.69 259.63 235.60 Z" />
</g>
</svg>
