<?xml version="1.0" encoding="UTF-8" ?>
<!DOCTYPE svg PUBLIC "-//W3C//DTD SVG 1.1//EN" "http://www.w3.org/Graphics/SVG/1.1/DTD/svg11.dtd">
<svg width="642pt" height="405pt" viewBox="0 0 642 405" version="1.1" xmlns="http://www.w3.org/2000/svg">
<g id="#ffffffff">
<path fill="#ffffff" opacity="1.00" d=" M 0.00 0.00 L 642.00 0.00 L 642.00 405.00 L 0.00 405.00 L 0.00 0.00 M 82.36 61.55 C 73.23 63.66 66.43 72.62 66.68 81.97 C 66.70 146.67 66.66 211.38 66.70 276.08 C 67.18 280.98 69.18 285.85 72.59 289.45 C 76.52 292.92 81.62 295.48 86.95 295.41 C 229.98 295.40 373.02 295.41 516.06 295.40 C 525.80 295.01 534.89 286.99 535.40 277.05 C 535.42 211.69 535.40 146.32 535.41 80.96 C 535.83 70.31 525.68 60.47 515.03 61.28 C 372.68 61.28 230.32 61.28 87.96 61.28 C 86.09 61.31 84.21 61.27 82.36 61.55 Z" />
<path fill="#ffffff" opacity="1.00" d=" M 80.54 69.54 C 82.40 68.16 84.81 68.28 87.00 68.20 C 230.01 68.23 373.02 68.17 516.03 68.23 C 520.86 67.90 525.29 71.37 527.33 75.57 C 528.88 78.47 528.33 81.85 528.44 85.01 C 528.41 148.35 528.44 211.69 528.42 275.03 C 529.01 282.67 521.43 289.31 514.00 288.53 C 378.01 288.54 242.01 288.53 106.01 288.53 C 98.99 288.43 91.96 288.70 84.95 288.43 C 81.19 287.83 77.76 285.42 75.70 282.23 C 73.48 278.21 73.59 273.45 73.67 269.00 C 73.69 206.65 73.67 144.29 73.68 81.94 C 73.74 77.04 76.18 72.01 80.54 69.54 M 338.56 122.76 C 338.35 137.19 338.55 151.63 338.45 166.06 L 339.11 166.65 C 343.27 166.80 347.43 166.65 351.59 166.63 C 351.50 159.03 351.54 151.43 351.56 143.84 C 353.74 142.68 356.17 142.54 358.57 142.87 C 358.57 150.59 358.54 158.31 358.55 166.04 C 362.51 167.50 367.35 166.48 371.64 166.45 C 371.34 157.28 371.62 148.10 371.49 138.92 C 371.71 135.77 368.84 133.32 366.03 132.57 C 361.17 131.56 356.18 132.35 351.52 133.82 C 351.57 129.97 351.55 126.12 351.55 122.27 C 347.22 122.39 342.89 122.66 338.56 122.76 M 437.71 132.70 C 431.96 132.71 425.00 132.00 420.78 136.77 C 416.29 141.73 417.18 148.90 417.45 155.05 C 418.19 159.47 420.15 164.58 424.67 166.34 C 430.20 168.87 436.94 167.85 441.77 164.26 C 444.06 166.94 447.42 166.93 450.68 166.69 C 450.70 151.88 450.70 137.07 450.69 122.27 C 446.81 122.46 442.92 122.48 439.05 122.81 C 436.25 125.11 438.21 129.49 437.71 132.70 M 171.85 126.01 C 166.43 127.82 165.24 134.29 165.34 139.29 C 166.95 140.20 168.59 141.07 170.22 141.95 C 167.10 143.61 163.43 146.01 163.35 149.96 C 163.21 155.15 162.08 161.64 166.62 165.39 C 172.75 169.72 180.58 166.95 187.19 165.43 C 188.03 168.15 188.67 170.93 188.66 173.79 C 191.31 174.65 194.01 173.66 196.70 173.47 C 196.88 166.05 196.36 158.59 196.98 151.19 C 198.49 150.90 200.00 150.67 201.52 150.46 C 202.40 147.29 202.68 144.00 202.64 140.71 C 194.54 140.55 186.41 141.06 178.33 140.43 C 178.40 139.53 178.54 137.73 178.62 136.83 C 181.75 135.35 185.23 135.72 188.58 135.66 C 189.54 132.42 189.77 129.05 189.82 125.69 C 183.81 125.82 177.62 123.35 171.85 126.01 M 207.82 125.77 C 208.13 139.39 206.84 152.93 206.25 166.51 C 210.68 166.83 215.12 166.67 219.56 166.66 C 220.24 160.03 220.34 153.37 220.75 146.72 C 223.78 152.94 224.38 160.02 226.35 166.60 C 229.70 166.71 233.04 166.71 236.39 166.60 C 237.77 161.13 239.06 155.64 240.45 150.18 C 240.67 148.87 241.46 147.80 242.21 146.74 C 242.80 153.35 242.27 160.01 242.97 166.61 C 247.53 166.68 252.11 166.87 256.67 166.48 C 256.58 161.31 255.97 156.18 255.57 151.04 C 255.70 142.44 254.08 133.95 254.42 125.35 C 248.63 124.29 242.50 124.38 236.71 125.37 C 235.49 132.06 233.46 138.57 232.17 145.25 C 231.83 145.38 231.14 145.65 230.79 145.78 C 229.46 138.98 227.19 132.37 226.23 125.50 C 222.26 124.21 218.05 124.87 213.96 124.68 C 211.84 124.52 209.79 125.05 207.82 125.77 M 122.18 125.18 C 122.19 139.02 122.14 152.87 122.21 166.72 C 126.36 166.67 130.51 166.70 134.67 166.65 C 134.63 162.57 134.60 158.48 134.70 154.39 L 136.00 154.44 C 136.40 159.26 134.83 164.94 138.62 168.79 C 139.97 167.62 141.33 166.46 142.69 165.31 C 142.88 165.60 143.27 166.19 143.46 166.48 C 148.22 166.88 153.03 166.80 157.79 166.42 C 155.50 161.96 152.63 157.76 150.99 152.99 C 153.98 150.51 156.55 147.10 156.56 143.05 C 156.60 139.01 157.15 134.62 154.94 130.99 C 153.13 127.31 149.01 125.30 145.02 125.25 C 137.41 125.01 129.79 125.20 122.18 125.18 M 281.35 132.44 C 277.24 132.92 272.72 135.14 271.59 139.42 C 271.20 143.38 270.66 148.15 273.83 151.19 C 277.91 155.54 284.50 154.89 289.93 155.53 C 289.79 156.06 289.53 157.12 289.39 157.65 C 283.77 157.63 278.00 158.17 272.58 156.33 C 271.37 159.45 271.19 162.83 271.31 166.14 C 275.85 166.85 280.37 167.84 285.00 167.69 C 289.89 167.60 295.46 167.83 299.41 164.46 C 302.39 161.48 302.78 156.92 302.33 152.94 C 301.38 148.63 297.33 145.59 293.06 145.12 C 292.04 144.42 291.02 143.74 290.00 143.06 C 291.80 142.81 293.60 142.56 295.40 142.29 C 296.68 142.49 297.97 142.65 299.27 142.81 C 299.40 139.85 301.02 136.83 300.21 133.94 C 294.12 132.24 287.61 130.91 281.35 132.44 M 392.31 131.95 C 386.15 132.25 379.70 135.67 378.22 142.08 C 376.66 149.15 376.43 157.72 381.52 163.51 C 385.29 167.18 390.96 167.81 395.99 167.68 C 401.03 167.69 406.58 165.98 409.42 161.53 C 412.71 157.03 411.63 151.20 411.75 146.00 C 412.00 140.68 408.70 135.31 403.66 133.43 C 400.06 132.19 396.12 131.37 392.31 131.95 M 454.69 132.24 C 454.58 135.44 455.34 138.56 456.20 141.62 C 457.38 145.85 457.86 150.36 460.16 154.19 C 460.67 156.86 461.28 159.52 461.92 162.16 C 464.15 163.42 466.85 163.18 469.31 163.58 C 466.30 168.06 460.28 167.97 455.52 168.92 C 455.51 171.81 455.50 174.70 455.50 177.59 C 460.00 177.67 464.52 177.73 469.03 177.64 C 472.48 177.61 476.38 176.41 478.11 173.16 C 481.74 166.81 482.29 159.32 484.35 152.41 C 485.70 145.83 488.24 139.45 488.68 132.72 C 484.50 132.72 480.31 132.73 476.13 132.73 C 473.21 138.03 473.95 144.44 472.39 150.17 C 471.58 149.31 471.04 148.27 470.99 147.09 C 470.27 142.21 469.56 137.32 468.45 132.51 C 463.89 131.79 459.27 131.90 454.69 132.24 M 312.62 134.56 C 307.52 137.81 306.04 144.33 306.33 150.00 C 306.09 155.56 307.66 162.00 312.62 165.18 C 318.69 168.40 326.14 168.38 332.58 166.29 C 332.42 163.26 332.28 160.22 331.80 157.22 C 328.00 157.68 324.15 157.85 320.33 157.46 C 320.66 152.69 319.94 147.83 320.74 143.10 C 323.79 140.90 327.69 141.94 331.17 141.79 C 331.62 138.78 331.94 135.72 331.70 132.67 C 325.38 132.18 318.33 131.09 312.62 134.56 M 332.26 186.99 C 332.07 187.85 331.71 189.59 331.52 190.45 C 328.86 188.61 325.59 188.23 322.44 188.48 C 316.18 188.90 309.89 187.78 303.65 188.67 C 306.85 190.98 311.09 189.46 314.72 189.40 C 313.41 189.88 312.07 190.30 310.75 190.76 C 305.89 190.33 300.99 190.66 296.12 190.59 C 291.50 191.94 286.67 191.43 281.93 191.40 C 274.74 189.58 267.27 191.07 259.94 190.67 C 250.67 191.92 241.29 191.11 231.99 191.90 C 220.70 193.23 209.28 191.99 197.99 193.30 C 191.52 193.70 184.95 192.74 178.54 193.69 C 174.94 194.15 171.15 193.68 167.69 194.78 C 164.76 196.84 161.18 197.12 157.74 197.58 C 162.90 199.69 168.74 198.84 174.19 198.88 C 175.44 199.09 176.70 199.25 177.97 199.36 C 188.96 197.47 200.17 198.66 211.26 198.60 C 222.12 200.62 233.08 198.35 244.00 198.73 C 256.33 198.63 268.67 198.65 281.01 198.79 C 294.34 200.29 307.85 198.65 321.17 200.19 C 317.64 199.76 314.02 200.07 310.78 201.59 C 316.34 203.23 322.10 202.01 327.76 202.42 C 337.46 203.59 347.25 202.80 356.99 203.00 C 368.68 203.19 380.36 202.68 392.05 202.72 C 393.36 202.84 394.58 202.32 395.44 201.32 L 394.46 201.38 C 391.49 200.28 388.32 199.70 385.16 199.77 C 383.05 199.36 380.96 198.89 378.89 198.33 C 393.94 198.85 409.01 198.41 424.06 198.65 C 428.81 198.63 433.67 200.26 438.34 198.81 C 439.48 198.94 440.62 199.07 441.76 199.20 C 443.33 199.46 444.90 199.72 446.48 199.98 C 446.59 198.78 446.70 197.59 446.82 196.40 C 443.20 196.17 439.58 196.25 435.97 196.07 C 432.25 195.89 428.77 194.22 425.03 194.33 C 420.61 194.42 416.20 194.22 411.80 193.88 C 422.54 193.34 433.29 193.51 444.03 193.34 C 450.33 194.52 456.74 194.89 463.15 194.45 C 460.47 192.72 456.97 194.09 453.97 193.70 C 449.18 194.10 444.71 192.14 440.04 191.62 C 427.06 191.41 414.07 191.87 401.10 191.63 C 401.25 190.54 401.41 189.45 401.58 188.37 C 395.94 188.67 390.29 188.45 384.65 188.80 C 373.41 190.04 362.07 189.28 350.80 189.80 C 352.35 189.62 354.31 189.15 354.05 187.15 C 350.00 187.53 346.00 188.17 341.99 188.79 C 338.62 189.41 335.41 187.93 332.26 186.99 M 330.75 217.85 C 328.88 218.06 327.01 218.28 325.14 218.48 C 325.06 220.56 324.98 222.64 324.89 224.72 C 321.71 228.44 321.11 234.79 324.59 238.49 C 328.60 241.60 334.03 240.43 338.54 239.24 C 338.23 237.89 337.91 236.55 337.58 235.21 C 334.69 235.38 331.79 235.55 328.91 235.33 C 331.78 233.70 335.82 234.95 338.20 232.16 C 340.74 229.44 338.86 225.41 336.14 223.65 C 334.27 223.08 332.44 222.42 330.57 221.91 C 332.94 221.77 335.13 220.81 336.86 219.18 C 336.06 218.15 335.26 217.12 334.46 216.09 C 333.13 216.45 331.75 216.84 330.75 217.85 M 428.90 222.53 C 427.87 222.87 426.87 223.31 425.88 223.74 C 425.51 223.78 424.76 223.84 424.38 223.88 C 424.39 225.42 424.41 226.97 424.45 228.52 C 427.18 228.54 429.92 228.52 432.65 228.48 C 432.67 228.71 432.70 229.17 432.72 229.40 C 429.85 229.49 426.59 229.26 424.31 231.33 C 421.47 233.30 421.84 238.71 425.26 239.83 C 428.33 241.43 431.65 239.68 434.49 238.41 C 434.88 238.95 435.65 240.03 436.04 240.57 C 438.59 241.84 441.33 240.43 443.77 239.56 C 446.33 240.13 448.92 240.53 451.56 240.49 C 451.72 238.41 451.57 236.30 450.34 234.53 C 448.53 231.61 449.92 228.25 451.84 225.82 C 451.39 223.49 449.67 221.55 449.23 219.17 C 447.58 219.48 445.71 219.25 444.25 220.14 C 443.11 221.53 442.34 223.18 441.36 224.67 C 440.95 224.25 440.14 223.42 439.73 223.00 C 439.34 220.65 439.07 218.28 438.82 215.92 C 438.12 216.01 436.72 216.18 436.02 216.27 C 432.96 216.44 427.20 218.65 428.90 222.53 M 183.39 218.36 C 183.34 225.64 183.50 232.93 183.29 240.22 C 185.42 240.51 187.58 240.51 189.72 240.21 C 189.61 236.42 189.40 232.62 189.80 228.84 C 190.72 228.72 192.56 228.48 193.48 228.36 C 193.54 232.30 193.60 236.25 193.41 240.19 C 195.51 240.50 197.65 240.51 199.76 240.26 C 199.61 235.26 199.72 230.25 199.65 225.25 C 196.84 222.81 193.09 223.54 189.71 223.77 C 189.66 221.61 189.59 219.45 189.29 217.32 C 187.31 217.61 185.34 217.96 183.39 218.36 M 232.64 218.40 C 232.64 220.03 232.63 221.65 232.63 223.28 C 229.81 223.57 226.41 222.92 224.31 225.31 C 221.75 227.48 222.32 231.11 222.43 234.08 C 222.58 238.17 226.85 241.52 230.84 240.18 C 233.66 239.07 236.55 239.78 239.34 240.55 C 239.42 232.87 239.39 225.20 239.35 217.52 C 237.08 217.55 234.83 217.83 232.64 218.40 M 304.28 218.05 C 303.21 225.41 303.97 232.89 303.77 240.30 C 305.97 240.41 308.18 240.45 310.39 240.45 C 310.44 238.22 310.50 236.00 310.69 233.78 C 311.94 235.92 312.89 238.20 313.84 240.48 C 315.96 240.45 318.09 240.42 320.21 240.37 C 319.31 237.47 317.92 234.76 316.81 231.94 C 317.32 228.96 319.15 226.37 320.08 223.49 C 317.91 223.46 315.73 223.46 313.57 223.48 C 312.66 225.39 311.72 227.29 310.66 229.12 C 310.37 225.25 310.46 221.37 310.41 217.50 C 308.36 217.60 306.31 217.74 304.28 218.05 M 274.45 219.18 C 274.45 220.40 274.46 221.63 274.47 222.86 C 276.41 223.54 278.46 223.79 280.50 224.00 C 281.05 222.69 281.41 221.33 281.57 219.93 C 279.92 217.54 276.75 218.50 274.45 219.18 M 208.55 223.68 C 201.94 225.03 200.47 234.53 205.26 238.68 C 208.01 240.63 211.78 240.97 214.96 240.04 C 221.18 238.17 222.24 228.59 217.11 224.95 C 214.70 223.01 211.41 223.29 208.55 223.68 M 241.38 223.71 C 242.67 227.93 243.45 232.28 244.67 236.52 C 245.12 238.27 246.78 239.22 248.00 240.41 C 245.97 241.05 243.74 241.24 241.87 242.29 C 241.64 243.62 241.54 244.96 241.57 246.32 C 245.52 246.15 251.19 247.85 253.40 243.41 C 255.93 237.05 256.80 230.15 258.67 223.57 C 256.63 223.49 254.58 223.44 252.54 223.38 C 251.31 226.88 251.59 230.80 249.81 234.13 C 248.99 230.59 248.50 226.99 247.84 223.42 C 245.68 223.43 243.53 223.49 241.38 223.71 M 150.55 225.58 C 149.00 226.94 149.53 229.12 149.66 230.92 C 151.48 234.50 156.01 233.72 159.15 235.28 C 155.99 235.52 152.82 235.37 149.65 235.43 C 149.58 236.41 149.44 238.36 149.37 239.33 C 153.11 240.42 157.14 240.97 160.97 240.06 C 164.50 239.45 166.73 234.57 164.30 231.76 C 162.19 229.24 158.46 230.22 155.86 228.64 C 158.38 228.43 160.92 228.50 163.46 228.59 C 163.58 227.18 163.70 225.78 163.81 224.37 C 159.51 223.24 154.25 222.54 150.55 225.58 M 167.78 227.55 C 167.27 230.94 166.54 235.18 169.03 238.00 C 172.12 240.78 177.05 241.38 180.65 239.24 C 180.42 237.99 180.20 236.75 179.97 235.51 C 178.07 235.42 176.18 235.33 174.29 235.19 C 174.32 233.07 174.33 230.96 174.32 228.84 C 176.09 228.61 177.87 228.45 179.66 228.32 C 179.43 226.79 180.36 224.77 179.04 223.62 C 174.98 222.89 169.95 223.58 167.78 227.55 M 285.34 224.49 C 285.49 225.85 285.64 227.22 285.79 228.58 C 288.60 228.55 291.41 228.44 294.21 228.60 C 291.86 230.39 288.33 228.74 286.07 230.94 C 283.04 232.70 283.64 236.45 284.80 239.18 C 287.37 240.43 290.22 240.91 292.93 239.73 C 295.53 238.60 298.07 240.08 300.54 240.78 C 300.61 236.01 300.93 231.21 300.42 226.46 C 296.91 222.02 290.15 223.24 285.34 224.49 M 346.73 223.43 C 346.67 229.07 346.71 234.71 346.69 240.36 C 348.92 240.42 351.16 240.43 353.41 240.42 C 353.45 236.34 353.18 232.23 353.72 228.17 C 354.27 228.27 355.38 228.48 355.93 228.58 C 355.61 232.43 355.54 236.29 355.67 240.15 C 361.03 242.38 366.61 240.24 372.12 240.31 C 374.03 240.54 375.96 240.53 377.89 240.44 C 379.63 240.29 381.38 240.11 383.12 239.94 C 382.85 237.99 382.37 236.05 382.45 234.08 C 382.92 231.25 384.87 228.29 382.82 225.63 C 377.95 222.36 368.88 222.01 366.54 228.46 C 364.98 226.65 363.30 224.94 361.48 223.40 C 359.07 223.45 356.65 223.55 354.33 224.23 C 351.75 225.18 349.31 223.45 346.73 223.43 M 385.51 223.56 C 385.77 225.20 385.28 227.35 387.01 228.36 C 388.61 228.52 390.22 228.56 391.84 228.64 C 389.30 231.62 386.41 234.41 384.72 237.98 C 384.81 238.60 384.98 239.85 385.07 240.48 C 390.29 240.44 395.52 240.43 400.74 240.49 C 400.73 238.82 400.74 237.16 400.76 235.49 C 398.73 235.44 396.70 235.39 394.68 235.25 C 396.06 230.87 401.41 228.49 400.81 223.50 C 395.71 223.44 390.61 223.39 385.51 223.56 M 403.67 223.35 C 403.56 229.03 403.62 234.72 403.61 240.41 C 405.85 240.44 408.09 240.41 410.34 240.34 C 410.33 236.40 410.31 232.47 410.44 228.54 C 411.51 228.48 412.59 228.42 413.67 228.36 C 414.17 232.42 412.90 236.76 414.62 240.61 C 416.54 240.48 418.47 240.41 420.40 240.34 C 420.33 235.60 420.63 230.85 420.26 226.13 C 418.55 222.81 414.44 223.16 411.44 224.16 C 408.83 225.17 406.26 223.66 403.67 223.35 M 454.34 230.00 C 454.24 232.91 453.86 236.54 456.53 238.51 C 459.55 240.98 463.63 240.34 467.24 240.48 C 468.51 240.22 469.77 239.96 471.05 239.71 C 470.95 237.21 470.14 234.86 468.85 232.74 C 469.28 232.63 470.14 232.39 470.58 232.28 C 470.63 230.20 470.79 228.10 470.49 226.04 C 468.24 223.15 464.19 223.30 460.91 223.53 C 457.67 223.89 454.13 226.41 454.34 230.00 M 274.60 224.49 C 274.61 229.81 274.62 235.14 274.54 240.46 C 272.03 241.53 270.71 243.66 271.44 246.41 C 274.60 246.49 278.39 246.98 280.50 244.00 C 281.28 237.40 280.65 230.73 280.83 224.10 C 278.75 224.21 276.67 224.34 274.60 224.49 M 260.56 233.57 C 259.37 237.41 261.86 240.93 261.51 244.78 C 262.08 244.77 263.23 244.75 263.80 244.74 C 266.17 241.49 267.37 237.60 266.38 233.60 C 264.44 233.54 262.50 233.53 260.56 233.57 Z" />
</g>
<g id="#000000ff">
<path fill="#000000" opacity="1.00" d=" M 82.36 61.55 C 84.21 61.27 86.09 61.31 87.96 61.28 C 230.32 61.28 372.68 61.28 515.03 61.28 C 525.68 60.47 535.83 70.31 535.41 80.96 C 535.40 146.32 535.42 211.69 535.40 277.05 C 534.89 286.99 525.80 295.01 516.06 295.40 C 373.02 295.41 229.98 295.40 86.95 295.41 C 81.62 295.48 76.52 292.92 72.59 289.45 C 69.18 285.85 67.18 280.98 66.70 276.08 C 66.66 211.38 66.70 146.67 66.68 81.97 C 66.43 72.62 73.23 63.66 82.36 61.55 M 80.54 69.54 C 76.18 72.01 73.74 77.04 73.68 81.94 C 73.67 144.29 73.69 206.65 73.67 269.00 C 73.59 273.45 73.48 278.21 75.70 282.23 C 77.76 285.42 81.19 287.83 84.95 288.43 C 91.96 288.70 98.99 288.43 106.01 288.53 C 242.01 288.53 378.01 288.54 514.00 288.53 C 521.43 289.31 529.01 282.67 528.42 275.03 C 528.44 211.69 528.41 148.35 528.44 85.01 C 528.33 81.85 528.88 78.47 527.33 75.57 C 525.29 71.37 520.86 67.90 516.03 68.23 C 373.02 68.17 230.01 68.23 87.00 68.20 C 84.81 68.28 82.40 68.16 80.54 69.54 Z" />
<path fill="#000000" opacity="1.00" d=" M 338.56 122.76 C 342.89 122.66 347.22 122.39 351.55 122.27 C 351.55 126.12 351.57 129.97 351.52 133.82 C 356.18 132.35 361.17 131.56 366.03 132.57 C 368.84 133.32 371.71 135.77 371.49 138.92 C 371.62 148.10 371.34 157.28 371.64 166.45 C 367.35 166.48 362.51 167.50 358.55 166.04 C 358.54 158.31 358.57 150.59 358.57 142.87 C 356.17 142.54 353.74 142.68 351.56 143.84 C 351.54 151.43 351.50 159.03 351.59 166.63 C 347.43 166.65 343.27 166.80 339.11 166.65 L 338.45 166.06 C 338.55 151.63 338.35 137.19 338.56 122.76 Z" />
<path fill="#000000" opacity="1.00" d=" M 437.71 132.70 C 438.21 129.49 436.25 125.11 439.05 122.81 C 442.92 122.48 446.81 122.46 450.69 122.27 C 450.70 137.07 450.70 151.88 450.68 166.69 C 447.42 166.93 444.06 166.94 441.77 164.26 C 436.94 167.85 430.20 168.87 424.67 166.34 C 420.15 164.58 418.19 159.47 417.45 155.05 C 417.18 148.90 416.29 141.73 420.78 136.77 C 425.00 132.00 431.96 132.71 437.71 132.70 M 431.27 142.62 C 431.30 147.66 431.22 152.71 431.32 157.76 C 433.24 157.30 436.19 158.48 437.48 156.72 C 437.98 151.76 437.57 146.76 437.68 141.79 C 435.49 141.59 433.31 141.75 431.27 142.62 Z" />
<path fill="#000000" opacity="1.00" d=" M 171.85 126.01 C 177.62 123.35 183.81 125.82 189.82 125.69 C 189.77 129.05 189.54 132.42 188.58 135.66 C 185.23 135.72 181.75 135.35 178.62 136.83 C 178.54 137.73 178.40 139.53 178.33 140.43 C 186.41 141.06 194.54 140.55 202.64 140.71 C 202.68 144.00 202.40 147.29 201.52 150.46 C 200.00 150.67 198.49 150.90 196.98 151.19 C 196.36 158.59 196.88 166.05 196.70 173.47 C 194.01 173.66 191.31 174.65 188.66 173.79 C 188.67 170.93 188.03 168.15 187.19 165.43 C 180.58 166.95 172.75 169.72 166.62 165.39 C 162.08 161.64 163.21 155.15 163.35 149.96 C 163.43 146.01 167.10 143.61 170.22 141.95 C 168.59 141.07 166.95 140.20 165.34 139.29 C 165.24 134.29 166.43 127.82 171.85 126.01 M 178.52 150.70 C 178.41 152.77 178.50 154.89 179.70 156.68 C 181.68 156.66 183.66 156.65 185.65 156.60 C 185.56 155.08 185.40 153.57 185.19 152.06 C 183.80 149.70 180.73 151.05 178.52 150.70 Z" />
<path fill="#000000" opacity="1.00" d=" M 207.82 125.77 C 209.79 125.05 211.84 124.52 213.96 124.68 C 218.05 124.87 222.26 124.21 226.23 125.50 C 227.19 132.37 229.46 138.98 230.79 145.78 C 231.14 145.65 231.83 145.38 232.17 145.25 C 233.46 138.57 235.49 132.06 236.71 125.37 C 242.50 124.38 248.63 124.29 254.42 125.35 C 254.08 133.95 255.70 142.44 255.57 151.04 C 255.97 156.18 256.58 161.31 256.67 166.48 C 252.11 166.87 247.53 166.68 242.97 166.61 C 242.27 160.01 242.80 153.35 242.21 146.74 C 241.46 147.80 240.67 148.87 240.45 150.18 C 239.06 155.64 237.77 161.13 236.39 166.60 C 233.04 166.71 229.70 166.71 226.35 166.60 C 224.38 160.02 223.78 152.94 220.75 146.72 C 220.34 153.37 220.24 160.03 219.56 166.66 C 215.12 166.67 210.68 166.83 206.25 166.51 C 206.84 152.93 208.13 139.39 207.82 125.77 Z" />
<path fill="#000000" opacity="1.00" d=" M 122.18 125.18 C 129.79 125.20 137.41 125.01 145.02 125.25 C 149.01 125.30 153.13 127.31 154.94 130.99 C 157.15 134.62 156.60 139.01 156.56 143.05 C 156.55 147.10 153.98 150.51 150.99 152.99 C 152.63 157.76 155.50 161.96 157.79 166.42 C 153.03 166.80 148.22 166.88 143.46 166.48 C 143.27 166.19 142.88 165.60 142.69 165.31 C 141.25 161.68 139.80 158.05 138.06 154.56 C 137.55 154.53 136.52 154.47 136.00 154.44 L 134.70 154.39 C 134.60 158.48 134.63 162.57 134.67 166.65 C 130.51 166.70 126.36 166.67 122.21 166.72 C 122.14 152.87 122.19 139.02 122.18 125.18 M 134.64 136.94 C 134.54 139.55 134.23 142.35 135.64 144.71 C 138.02 144.50 140.38 144.09 142.65 143.31 C 142.64 141.10 142.64 138.90 142.65 136.69 C 140.14 136.02 136.60 134.46 134.64 136.94 Z" />
<path fill="#000000" opacity="1.00" d=" M 281.35 132.44 C 287.61 130.91 294.12 132.24 300.21 133.94 C 301.02 136.83 299.40 139.85 299.27 142.81 C 297.97 142.65 296.68 142.49 295.40 142.29 C 291.74 141.55 288.00 141.60 284.30 141.79 C 284.31 142.45 284.32 143.76 284.32 144.42 C 287.24 144.51 290.17 144.62 293.06 145.12 C 297.33 145.59 301.38 148.63 302.33 152.94 C 302.78 156.92 302.39 161.48 299.41 164.46 C 295.46 167.83 289.89 167.60 285.00 167.69 C 280.37 167.84 275.85 166.85 271.31 166.14 C 271.19 162.83 271.37 159.45 272.58 156.33 C 278.00 158.17 283.77 157.63 289.39 157.65 C 289.53 157.12 289.79 156.06 289.93 155.53 C 284.50 154.89 277.91 155.54 273.83 151.19 C 270.66 148.15 271.20 143.38 271.59 139.42 C 272.72 135.14 277.24 132.92 281.35 132.44 Z" />
<path fill="#000000" opacity="1.00" d=" M 392.31 131.95 C 396.12 131.37 400.06 132.19 403.66 133.43 C 408.70 135.31 412.00 140.68 411.75 146.00 C 411.63 151.20 412.71 157.03 409.42 161.53 C 406.58 165.98 401.03 167.69 395.99 167.68 C 390.96 167.81 385.29 167.18 381.52 163.51 C 376.43 157.72 376.66 149.15 378.22 142.08 C 379.70 135.67 386.15 132.25 392.31 131.95 M 391.40 142.70 C 391.42 147.69 391.37 152.69 391.42 157.69 C 393.38 157.67 395.35 157.65 397.32 157.62 C 399.40 153.04 398.05 147.80 398.37 142.92 C 396.75 140.54 393.55 141.96 391.40 142.70 Z" />
<path fill="#000000" opacity="1.00" d=" M 312.62 134.56 C 318.33 131.09 325.38 132.18 331.70 132.67 C 331.94 135.72 331.62 138.78 331.17 141.79 C 327.69 141.94 323.79 140.90 320.74 143.10 C 319.94 147.83 320.66 152.69 320.33 157.46 C 324.15 157.85 328.00 157.68 331.80 157.22 C 332.28 160.22 332.42 163.26 332.58 166.29 C 326.14 168.38 318.69 168.40 312.62 165.18 C 307.66 162.00 306.09 155.56 306.33 150.00 C 306.04 144.33 307.52 137.81 312.62 134.56 Z" />
<path fill="#000000" opacity="1.00" d=" M 476.13 132.73 C 480.31 132.73 484.50 132.72 488.68 132.72 C 488.24 139.45 485.70 145.83 484.35 152.41 C 482.29 159.32 481.74 166.81 478.11 173.16 C 476.38 176.41 472.48 177.61 469.03 177.64 C 464.52 177.73 460.00 177.67 455.50 177.59 C 455.50 174.70 455.51 171.81 455.52 168.92 C 460.28 167.97 466.30 168.06 469.31 163.58 C 466.85 163.18 464.15 163.42 461.92 162.16 C 461.28 159.52 460.67 156.86 460.16 154.19 C 458.96 147.14 456.88 140.30 455.36 133.33 C 459.36 133.15 463.36 133.17 467.37 133.27 C 468.81 140.26 469.98 147.31 470.85 154.40 C 471.62 154.40 472.39 154.39 473.17 154.39 C 473.97 147.14 475.52 140.00 476.13 132.73 Z" />
<path fill="#000000" opacity="1.00" d=" M 231.99 191.90 C 241.29 191.11 250.67 191.92 259.94 190.67 C 267.27 191.07 274.74 189.58 281.93 191.40 C 286.67 191.43 291.50 191.94 296.12 190.59 C 300.99 190.66 305.89 190.33 310.75 190.76 C 317.90 191.65 325.15 191.35 332.31 190.87 C 337.80 190.85 343.31 190.39 348.77 191.07 C 354.04 191.71 359.33 192.18 364.65 191.99 C 375.12 193.30 385.69 192.14 396.18 192.77 L 396.28 193.99 C 395.07 194.15 393.87 194.30 392.68 194.46 C 384.25 194.59 375.89 195.95 367.43 195.58 C 363.64 195.66 359.80 195.60 356.07 196.33 C 353.84 196.77 352.69 199.05 350.71 199.94 C 347.77 200.59 344.72 200.52 341.73 200.53 C 334.88 200.23 328.01 200.77 321.17 200.19 C 307.85 198.65 294.34 200.29 281.01 198.79 C 268.67 198.65 256.33 198.63 244.00 198.73 C 233.08 198.35 222.12 200.62 211.26 198.60 C 200.17 198.66 188.96 197.47 177.97 199.36 C 176.70 199.25 175.44 199.09 174.19 198.88 C 171.95 197.76 169.87 196.36 167.75 195.03 C 171.38 194.96 175.11 195.08 178.54 193.69 C 184.95 192.74 191.52 193.70 197.99 193.30 C 209.28 191.99 220.70 193.23 231.99 191.90 Z" />
</g>
<g id="#b5b5b5ff">
<path fill="#b5b5b5" opacity="1.00" d=" M 454.69 132.24 C 459.27 131.90 463.89 131.79 468.45 132.51 C 469.56 137.32 470.27 142.21 470.99 147.09 C 471.04 148.27 471.58 149.31 472.39 150.17 C 473.95 144.44 473.21 138.03 476.13 132.73 C 475.52 140.00 473.97 147.14 473.17 154.39 C 472.39 154.39 471.62 154.40 470.85 154.40 C 469.98 147.31 468.81 140.26 467.37 133.27 C 463.36 133.17 459.36 133.15 455.36 133.33 C 456.88 140.30 458.96 147.14 460.16 154.19 C 457.86 150.36 457.38 145.85 456.20 141.62 C 455.34 138.56 454.58 135.44 454.69 132.24 Z" />
<path fill="#b5b5b5" opacity="1.00" d=" M 460.56 235.27 C 463.20 234.08 466.05 233.47 468.85 232.74 C 470.14 234.86 470.95 237.21 471.05 239.71 C 469.77 239.96 468.51 240.22 467.24 240.48 C 468.37 239.07 469.23 237.48 469.85 235.79 C 466.75 235.65 463.64 235.63 460.56 235.27 Z" />
</g>
<g id="#f3f3f3ff">
<path fill="#f3f3f3" opacity="1.00" d=" M 134.64 136.94 C 136.60 134.46 140.14 136.02 142.65 136.69 C 142.64 138.90 142.64 141.10 142.65 143.31 C 140.38 144.09 138.02 144.50 135.64 144.71 C 134.23 142.35 134.54 139.55 134.64 136.94 Z" />
</g>
<g id="#d8d8d8ff">
<path fill="#d8d8d8" opacity="1.00" d=" M 284.30 141.79 C 288.00 141.60 291.74 141.55 295.40 142.29 C 293.60 142.56 291.80 142.81 290.00 143.06 C 291.02 143.74 292.04 144.42 293.06 145.12 C 290.17 144.62 287.24 144.51 284.32 144.42 C 284.32 143.76 284.31 142.45 284.30 141.79 Z" />
</g>
<g id="#fdfdfdff">
<path fill="#fdfdfd" opacity="1.00" d=" M 391.40 142.70 C 393.55 141.96 396.75 140.54 398.37 142.92 C 398.05 147.80 399.40 153.04 397.32 157.62 C 395.35 157.65 393.38 157.67 391.42 157.69 C 391.37 152.69 391.42 147.69 391.40 142.70 Z" />
</g>
<g id="#fcfcfcff">
<path fill="#fcfcfc" opacity="1.00" d=" M 431.27 142.62 C 433.31 141.75 435.49 141.59 437.68 141.79 C 437.57 146.76 437.98 151.76 437.48 156.72 C 436.19 158.48 433.24 157.30 431.32 157.76 C 431.22 152.71 431.30 147.66 431.27 142.62 Z" />
<path fill="#fcfcfc" opacity="1.00" d=" M 364.65 191.99 C 376.32 190.32 388.13 191.23 399.87 190.55 C 398.64 191.30 397.40 192.02 396.18 192.77 C 385.69 192.14 375.12 193.30 364.65 191.99 Z" />
</g>
<g id="#fefefeff">
<path fill="#fefefe" opacity="1.00" d=" M 178.52 150.70 C 180.73 151.05 183.80 149.70 185.19 152.06 C 185.40 153.57 185.56 155.08 185.65 156.60 C 183.66 156.65 181.68 156.66 179.70 156.68 C 178.50 154.89 178.41 152.77 178.52 150.70 Z" />
</g>
<g id="#eeeeeeff">
<path fill="#eeeeee" opacity="1.00" d=" M 136.00 154.44 C 136.52 154.47 137.55 154.53 138.06 154.56 C 139.80 158.05 141.25 161.68 142.69 165.31 C 141.33 166.46 139.97 167.62 138.62 168.79 C 134.83 164.94 136.40 159.26 136.00 154.44 Z" />
<path fill="#eeeeee" opacity="1.00" d=" M 329.38 228.45 C 330.52 228.42 331.66 228.39 332.81 228.36 C 332.78 228.90 332.74 229.99 332.71 230.53 C 331.60 230.51 330.50 230.50 329.40 230.50 C 329.39 229.99 329.38 228.96 329.38 228.45 Z" />
</g>
<g id="#e1e1e1ff">
<path fill="#e1e1e1" opacity="1.00" d=" M 332.26 186.99 C 335.41 187.93 338.62 189.41 341.99 188.79 C 346.00 188.17 350.00 187.53 354.05 187.15 C 354.31 189.15 352.35 189.62 350.80 189.80 C 344.39 190.38 337.95 190.43 331.52 190.45 C 331.71 189.59 332.07 187.85 332.26 186.99 Z" />
</g>
<g id="#aeaeaeff">
<path fill="#aeaeae" opacity="1.00" d=" M 303.65 188.67 C 309.89 187.78 316.18 188.90 322.44 188.48 C 325.59 188.23 328.86 188.61 331.52 190.45 L 332.31 190.87 C 325.15 191.35 317.90 191.65 310.75 190.76 C 312.07 190.30 313.41 189.88 314.72 189.40 C 311.09 189.46 306.85 190.98 303.65 188.67 Z" />
</g>
<g id="#515151ff">
<path fill="#515151" opacity="1.00" d=" M 384.65 188.80 C 390.29 188.45 395.94 188.67 401.58 188.37 C 401.41 189.45 401.25 190.54 401.10 191.63 C 414.07 191.87 427.06 191.41 440.04 191.62 C 444.71 192.14 449.18 194.10 453.97 193.70 C 456.97 194.09 460.47 192.72 463.15 194.45 C 456.74 194.89 450.33 194.52 444.03 193.34 C 433.29 193.51 422.54 193.34 411.80 193.88 C 408.82 193.92 405.84 193.99 402.87 193.97 C 400.67 193.95 398.47 193.90 396.28 193.99 L 396.18 192.77 C 397.40 192.02 398.64 191.30 399.87 190.55 C 388.13 191.23 376.32 190.32 364.65 191.99 C 359.33 192.18 354.04 191.71 348.77 191.07 C 343.31 190.39 337.80 190.85 332.31 190.87 L 331.52 190.45 C 337.95 190.43 344.39 190.38 350.80 189.80 C 362.07 189.28 373.41 190.04 384.65 188.80 Z" />
</g>
<g id="#a6a6a6ff">
<path fill="#a6a6a6" opacity="1.00" d=" M 167.69 194.78 C 171.15 193.68 174.94 194.15 178.54 193.69 C 175.11 195.08 171.38 194.96 167.75 195.03 C 169.87 196.36 171.95 197.76 174.19 198.88 C 168.74 198.84 162.90 199.69 157.74 197.58 C 161.18 197.12 164.76 196.84 167.69 194.78 Z" />
<path fill="#a6a6a6" opacity="1.00" d=" M 396.28 193.99 C 398.47 193.90 400.67 193.95 402.87 193.97 C 402.62 195.00 402.38 196.03 402.14 197.07 C 407.34 196.89 412.55 196.92 417.75 197.26 C 424.59 198.09 431.52 197.78 438.34 198.81 C 433.67 200.26 428.81 198.63 424.06 198.65 C 409.01 198.41 393.94 198.85 378.89 198.33 C 380.96 198.89 383.05 199.36 385.16 199.77 C 382.85 199.80 380.54 199.86 378.23 199.81 C 375.62 199.66 373.01 199.41 370.41 199.20 C 370.50 198.65 370.69 197.54 370.78 196.99 C 380.58 196.99 390.41 197.74 400.19 196.80 C 397.68 196.02 395.19 195.21 392.68 194.46 C 393.87 194.30 395.07 194.15 396.28 193.99 Z" />
</g>
<g id="#d5d5d5ff">
<path fill="#d5d5d5" opacity="1.00" d=" M 402.87 193.97 C 405.84 193.99 408.82 193.92 411.80 193.88 C 416.20 194.22 420.61 194.42 425.03 194.33 C 428.77 194.22 432.25 195.89 435.97 196.07 C 439.58 196.25 443.20 196.17 446.82 196.40 C 446.70 197.59 446.59 198.78 446.48 199.98 C 444.90 199.72 443.33 199.46 441.76 199.20 C 442.87 198.46 443.99 197.73 445.12 196.99 C 436.00 196.22 426.87 196.90 417.75 197.26 C 412.55 196.92 407.34 196.89 402.14 197.07 C 402.38 196.03 402.62 195.00 402.87 193.97 Z" />
</g>
<g id="#474747ff">
<path fill="#474747" opacity="1.00" d=" M 356.07 196.33 C 359.80 195.60 363.64 195.66 367.43 195.58 C 367.06 195.86 366.33 196.40 365.96 196.67 C 364.59 197.39 363.22 198.11 361.85 198.84 C 367.24 200.01 372.76 199.86 378.23 199.81 C 380.54 199.86 382.85 199.80 385.16 199.77 C 388.32 199.70 391.49 200.28 394.46 201.38 C 383.33 202.46 372.16 201.27 361.00 201.48 C 354.56 201.64 348.16 200.76 341.73 200.53 C 344.72 200.52 347.77 200.59 350.71 199.94 C 352.69 199.05 353.84 196.77 356.07 196.33 Z" />
</g>
<g id="#e5e5e5ff">
<path fill="#e5e5e5" opacity="1.00" d=" M 367.43 195.58 C 375.89 195.95 384.25 194.59 392.68 194.46 C 395.19 195.21 397.68 196.02 400.19 196.80 C 390.41 197.74 380.58 196.99 370.78 196.99 C 369.17 196.89 367.56 196.75 365.96 196.67 C 366.33 196.40 367.06 195.86 367.43 195.58 Z" />
<path fill="#e5e5e5" opacity="1.00" d=" M 325.14 218.48 C 327.01 218.28 328.88 218.06 330.75 217.85 C 329.59 218.91 328.49 220.04 327.41 221.19 C 328.45 221.43 329.51 221.67 330.57 221.91 C 332.44 222.42 334.27 223.08 336.14 223.65 C 332.35 223.38 328.55 223.66 324.89 224.72 C 324.98 222.64 325.06 220.56 325.14 218.48 Z" />
</g>
<g id="#8a8a8aff">
<path fill="#8a8a8a" opacity="1.00" d=" M 361.85 198.84 C 363.22 198.11 364.59 197.39 365.96 196.67 C 367.56 196.75 369.17 196.89 370.78 196.99 C 370.69 197.54 370.50 198.65 370.41 199.20 C 373.01 199.41 375.62 199.66 378.23 199.81 C 372.76 199.86 367.24 200.01 361.85 198.84 Z" />
</g>
<g id="#909090ff">
<path fill="#909090" opacity="1.00" d=" M 417.75 197.26 C 426.87 196.90 436.00 196.22 445.12 196.99 C 443.99 197.73 442.87 198.46 441.76 199.20 C 440.62 199.07 439.48 198.94 438.34 198.81 C 431.52 197.78 424.59 198.09 417.75 197.26 Z" />
</g>
<g id="#e8e8e8ff">
<path fill="#e8e8e8" opacity="1.00" d=" M 310.78 201.59 C 314.02 200.07 317.64 199.76 321.17 200.19 C 328.01 200.77 334.88 200.23 341.73 200.53 C 348.16 200.76 354.56 201.64 361.00 201.48 C 372.16 201.27 383.33 202.46 394.46 201.38 L 395.44 201.32 C 394.58 202.32 393.36 202.84 392.05 202.72 C 380.36 202.68 368.68 203.19 356.99 203.00 C 347.25 202.80 337.46 203.59 327.76 202.42 C 322.10 202.01 316.34 203.23 310.78 201.59 Z" />
<path fill="#e8e8e8" opacity="1.00" d=" M 461.31 228.41 C 462.45 228.40 463.59 228.39 464.74 228.39 C 464.71 228.92 464.67 229.97 464.65 230.50 C 463.54 230.51 462.44 230.52 461.34 230.53 C 461.33 230.00 461.32 228.94 461.31 228.41 Z" />
<path fill="#e8e8e8" opacity="1.00" d=" M 290.38 233.44 C 291.82 233.43 293.27 233.43 294.73 233.43 C 294.60 233.92 294.35 234.88 294.23 235.36 C 292.97 235.43 291.72 235.50 290.47 235.58 C 290.44 235.04 290.40 233.97 290.38 233.44 Z" />
<path fill="#e8e8e8" opacity="1.00" d=" M 429.28 233.42 C 430.47 233.40 431.65 233.38 432.85 233.36 C 432.76 233.90 432.57 234.96 432.48 235.49 C 431.43 235.51 430.38 235.54 429.34 235.58 C 429.32 235.04 429.30 233.96 429.28 233.42 Z" />
</g>
<g id="#242022ff">
<path fill="#242022" opacity="1.00" d=" M 330.75 217.85 C 331.75 216.84 333.13 216.45 334.46 216.09 C 335.26 217.12 336.06 218.15 336.86 219.18 C 335.13 220.81 332.94 221.77 330.57 221.91 C 329.51 221.67 328.45 221.43 327.41 221.19 C 328.49 220.04 329.59 218.91 330.75 217.85 Z" />
</g>
<g id="#262224ff">
<path fill="#262224" opacity="1.00" d=" M 428.90 222.53 C 427.20 218.65 432.96 216.44 436.02 216.27 C 436.30 217.56 436.57 218.85 436.85 220.14 C 434.22 221.01 431.54 221.72 428.90 222.53 Z" />
<path fill="#262224" opacity="1.00" d=" M 260.56 233.57 C 262.50 233.53 264.44 233.54 266.38 233.60 C 267.37 237.60 266.17 241.49 263.80 244.74 C 263.23 244.75 262.08 244.77 261.51 244.78 C 261.86 240.93 259.37 237.41 260.56 233.57 Z" />
</g>
<g id="#f2f2f2ff">
<path fill="#f2f2f2" opacity="1.00" d=" M 436.02 216.27 C 436.72 216.18 438.12 216.01 438.82 215.92 C 439.07 218.28 439.34 220.65 439.73 223.00 C 440.14 223.42 440.95 224.25 441.36 224.67 C 444.06 229.20 443.16 234.56 443.77 239.56 C 441.33 240.43 438.59 241.84 436.04 240.57 C 436.88 240.49 438.57 240.35 439.42 240.28 C 439.30 235.11 440.14 229.76 438.36 224.78 C 434.32 223.51 430.07 223.21 425.88 223.74 C 426.87 223.31 427.87 222.87 428.90 222.53 C 431.54 221.72 434.22 221.01 436.85 220.14 C 436.57 218.85 436.30 217.56 436.02 216.27 Z" />
</g>
<g id="#252123ff">
<path fill="#252123" opacity="1.00" d=" M 183.39 218.36 C 185.34 217.96 187.31 217.61 189.29 217.32 C 189.59 219.45 189.66 221.61 189.71 223.77 C 193.09 223.54 196.84 222.81 199.65 225.25 C 199.72 230.25 199.61 235.26 199.76 240.26 C 197.65 240.51 195.51 240.50 193.41 240.19 C 193.60 236.25 193.54 232.30 193.48 228.36 C 192.56 228.48 190.72 228.72 189.80 228.84 C 189.40 232.62 189.61 236.42 189.72 240.21 C 187.58 240.51 185.42 240.51 183.29 240.22 C 183.50 232.93 183.34 225.64 183.39 218.36 Z" />
</g>
<g id="#221e20ff">
<path fill="#221e20" opacity="1.00" d=" M 232.64 218.40 C 234.83 217.83 237.08 217.55 239.35 217.52 C 239.39 225.20 239.42 232.87 239.34 240.55 C 236.55 239.78 233.66 239.07 230.84 240.18 C 226.85 241.52 222.58 238.17 222.43 234.08 C 222.32 231.11 221.75 227.48 224.31 225.31 C 226.41 222.92 229.81 223.57 232.63 223.28 C 232.63 221.65 232.64 220.03 232.64 218.40 M 229.38 227.49 C 229.28 230.16 229.28 232.83 229.35 235.50 C 230.42 235.48 231.49 235.47 232.57 235.47 C 232.67 232.77 232.68 230.07 232.66 227.37 C 231.56 227.41 230.47 227.45 229.38 227.49 Z" />
<path fill="#221e20" opacity="1.00" d=" M 304.28 218.05 C 306.31 217.74 308.36 217.60 310.41 217.50 C 310.46 221.37 310.37 225.25 310.66 229.12 C 311.72 227.29 312.66 225.39 313.57 223.48 C 315.73 223.46 317.91 223.46 320.08 223.49 C 319.15 226.37 317.32 228.96 316.81 231.94 C 317.92 234.76 319.31 237.47 320.21 240.37 C 318.09 240.42 315.96 240.45 313.84 240.48 C 312.89 238.20 311.94 235.92 310.69 233.78 C 310.50 236.00 310.44 238.22 310.39 240.45 C 308.18 240.45 305.97 240.41 303.77 240.30 C 303.97 232.89 303.21 225.41 304.28 218.05 Z" />
<path fill="#221e20" opacity="1.00" d=" M 444.25 220.14 C 445.71 219.25 447.58 219.48 449.23 219.17 C 449.67 221.55 451.39 223.49 451.84 225.82 C 449.92 228.25 448.53 231.61 450.34 234.53 C 451.57 236.30 451.72 238.41 451.56 240.49 C 448.92 240.53 446.33 240.13 443.77 239.56 C 443.16 234.56 444.06 229.20 441.36 224.67 C 442.34 223.18 443.11 221.53 444.25 220.14 Z" />
<path fill="#221e20" opacity="1.00" d=" M 208.55 223.68 C 211.41 223.29 214.70 223.01 217.11 224.95 C 222.24 228.59 221.18 238.17 214.96 240.04 C 211.78 240.97 208.01 240.63 205.26 238.68 C 200.47 234.53 201.94 225.03 208.55 223.68 M 209.55 228.58 C 209.53 230.75 209.49 232.92 209.39 235.10 C 210.07 235.20 211.43 235.42 212.10 235.52 C 214.20 233.70 213.21 230.72 212.95 228.36 C 211.81 228.43 210.68 228.51 209.55 228.58 Z" />
<path fill="#221e20" opacity="1.00" d=" M 324.89 224.72 C 328.55 223.66 332.35 223.38 336.14 223.65 C 338.86 225.41 340.74 229.44 338.20 232.16 C 335.82 234.95 331.78 233.70 328.91 235.33 C 331.79 235.55 334.69 235.38 337.58 235.21 C 337.91 236.55 338.23 237.89 338.54 239.24 C 334.03 240.43 328.60 241.60 324.59 238.49 C 321.11 234.79 321.71 228.44 324.89 224.72 M 329.38 228.45 C 329.38 228.96 329.39 229.99 329.40 230.50 C 330.50 230.50 331.60 230.51 332.71 230.53 C 332.74 229.99 332.78 228.90 332.81 228.36 C 331.66 228.39 330.52 228.42 329.38 228.45 Z" />
<path fill="#221e20" opacity="1.00" d=" M 346.73 223.43 C 349.31 223.45 351.75 225.18 354.33 224.23 C 356.65 223.55 359.07 223.45 361.48 223.40 C 364.93 228.40 363.04 234.71 363.45 240.36 C 361.43 240.38 359.42 240.39 357.41 240.41 C 357.34 236.70 357.42 233.00 357.37 229.31 C 357.01 229.12 356.29 228.76 355.93 228.58 C 355.38 228.48 354.27 228.27 353.72 228.17 C 353.18 232.23 353.45 236.34 353.41 240.42 C 351.16 240.43 348.92 240.42 346.69 240.36 C 346.71 234.71 346.67 229.07 346.73 223.43 Z" />
<path fill="#221e20" opacity="1.00" d=" M 366.54 228.46 C 368.88 222.01 377.95 222.36 382.82 225.63 C 382.65 227.71 382.61 229.82 382.20 231.88 C 379.23 233.57 375.76 233.97 372.64 235.29 C 375.71 235.59 378.81 235.59 381.90 235.66 C 381.93 238.27 380.28 239.79 377.89 240.44 C 375.96 240.53 374.03 240.54 372.12 240.31 C 370.16 239.28 367.91 238.22 367.02 236.05 C 366.02 233.66 366.36 230.98 366.54 228.46 M 373.34 228.43 C 373.34 228.95 373.35 230.00 373.36 230.53 C 374.46 230.52 375.57 230.52 376.68 230.52 C 376.70 229.98 376.75 228.90 376.78 228.37 C 375.63 228.38 374.48 228.40 373.34 228.43 Z" />
<path fill="#221e20" opacity="1.00" d=" M 403.67 223.35 C 406.26 223.66 408.83 225.17 411.44 224.16 C 414.44 223.16 418.55 222.81 420.26 226.13 C 420.63 230.85 420.33 235.60 420.40 240.34 C 418.47 240.41 416.54 240.48 414.62 240.61 C 412.90 236.76 414.17 232.42 413.67 228.36 C 412.59 228.42 411.51 228.48 410.44 228.54 C 410.31 232.47 410.33 236.40 410.34 240.34 C 408.09 240.41 405.85 240.44 403.61 240.41 C 403.62 234.72 403.56 229.03 403.67 223.35 Z" />
<path fill="#221e20" opacity="1.00" d=" M 454.34 230.00 C 454.13 226.41 457.67 223.89 460.91 223.53 C 464.19 223.30 468.24 223.15 470.49 226.04 C 470.79 228.10 470.63 230.20 470.58 232.28 C 470.14 232.39 469.28 232.63 468.85 232.74 C 466.05 233.47 463.20 234.08 460.56 235.27 C 463.64 235.63 466.75 235.65 469.85 235.79 C 469.23 237.48 468.37 239.07 467.24 240.48 C 463.63 240.34 459.55 240.98 456.53 238.51 C 453.86 236.54 454.24 232.91 454.34 230.00 M 461.31 228.41 C 461.32 228.94 461.33 230.00 461.34 230.53 C 462.44 230.52 463.54 230.51 464.65 230.50 C 464.67 229.97 464.71 228.92 464.74 228.39 C 463.59 228.39 462.45 228.40 461.31 228.41 Z" />
<path fill="#221e20" opacity="1.00" d=" M 274.60 224.49 C 276.67 224.34 278.75 224.21 280.83 224.10 C 280.65 230.73 281.28 237.40 280.50 244.00 C 278.39 246.98 274.60 246.49 271.44 246.41 C 270.71 243.66 272.03 241.53 274.54 240.46 C 274.62 235.14 274.61 229.81 274.60 224.49 Z" />
</g>
<g id="#231f21ff">
<path fill="#231f21" opacity="1.00" d=" M 274.45 219.18 C 276.75 218.50 279.92 217.54 281.57 219.93 C 281.41 221.33 281.05 222.69 280.50 224.00 C 278.46 223.79 276.41 223.54 274.47 222.86 C 274.46 221.63 274.45 220.40 274.45 219.18 Z" />
<path fill="#231f21" opacity="1.00" d=" M 241.38 223.71 C 243.53 223.49 245.68 223.43 247.84 223.42 C 248.50 226.99 248.99 230.59 249.81 234.13 C 251.59 230.80 251.31 226.88 252.54 223.38 C 254.58 223.44 256.63 223.49 258.67 223.57 C 256.80 230.15 255.93 237.05 253.40 243.41 C 251.19 247.85 245.52 246.15 241.57 246.32 C 241.54 244.96 241.64 243.62 241.87 242.29 C 243.74 241.24 245.97 241.05 248.00 240.41 C 246.78 239.22 245.12 238.27 244.67 236.52 C 243.45 232.28 242.67 227.93 241.38 223.71 Z" />
<path fill="#231f21" opacity="1.00" d=" M 150.55 225.58 C 154.25 222.54 159.51 223.24 163.81 224.37 C 163.70 225.78 163.58 227.18 163.46 228.59 C 160.92 228.50 158.38 228.43 155.86 228.64 C 158.46 230.22 162.19 229.24 164.30 231.76 C 166.73 234.57 164.50 239.45 160.97 240.06 C 157.14 240.97 153.11 240.42 149.37 239.33 C 149.44 238.36 149.58 236.41 149.65 235.43 C 152.82 235.37 155.99 235.52 159.15 235.28 C 156.01 233.72 151.48 234.50 149.66 230.92 C 149.53 229.12 149.00 226.94 150.55 225.58 Z" />
<path fill="#231f21" opacity="1.00" d=" M 167.78 227.55 C 169.95 223.58 174.98 222.89 179.04 223.62 C 180.36 224.77 179.43 226.79 179.66 228.32 C 177.87 228.45 176.09 228.61 174.32 228.84 C 174.33 230.96 174.32 233.07 174.29 235.19 C 176.18 235.33 178.07 235.42 179.97 235.51 C 180.20 236.75 180.42 237.99 180.65 239.24 C 177.05 241.38 172.12 240.78 169.03 238.00 C 166.54 235.18 167.27 230.94 167.78 227.55 Z" />
<path fill="#231f21" opacity="1.00" d=" M 285.34 224.49 C 290.15 223.24 296.91 222.02 300.42 226.46 C 300.93 231.21 300.61 236.01 300.54 240.78 C 298.07 240.08 295.53 238.60 292.93 239.73 C 290.22 240.91 287.37 240.43 284.80 239.18 C 283.64 236.45 283.04 232.70 286.07 230.94 C 288.33 228.74 291.86 230.39 294.21 228.60 C 291.41 228.44 288.60 228.55 285.79 228.58 C 285.64 227.22 285.49 225.85 285.34 224.49 M 290.38 233.44 C 290.40 233.97 290.44 235.04 290.47 235.58 C 291.72 235.50 292.97 235.43 294.23 235.36 C 294.35 234.88 294.60 233.92 294.73 233.43 C 293.27 233.43 291.82 233.43 290.38 233.44 Z" />
<path fill="#231f21" opacity="1.00" d=" M 385.51 223.56 C 390.61 223.39 395.71 223.44 400.81 223.50 C 401.41 228.49 396.06 230.87 394.68 235.25 C 396.70 235.39 398.73 235.44 400.76 235.49 C 400.74 237.16 400.73 238.82 400.74 240.49 C 395.52 240.43 390.29 240.44 385.07 240.48 C 384.98 239.85 384.81 238.60 384.72 237.98 C 386.41 234.41 389.30 231.62 391.84 228.64 C 390.22 228.56 388.61 228.52 387.01 228.36 C 385.28 227.35 385.77 225.20 385.51 223.56 Z" />
<path fill="#231f21" opacity="1.00" d=" M 424.38 223.88 C 424.76 223.84 425.51 223.78 425.88 223.74 C 430.07 223.21 434.32 223.51 438.36 224.78 C 440.14 229.76 439.30 235.11 439.42 240.28 C 438.57 240.35 436.88 240.49 436.04 240.57 C 435.65 240.03 434.88 238.95 434.49 238.41 C 431.65 239.68 428.33 241.43 425.26 239.83 C 421.84 238.71 421.47 233.30 424.31 231.33 C 426.59 229.26 429.85 229.49 432.72 229.40 C 432.70 229.17 432.67 228.71 432.65 228.48 C 429.92 228.52 427.18 228.54 424.45 228.52 C 424.41 226.97 424.39 225.42 424.38 223.88 M 429.28 233.42 C 429.30 233.96 429.32 235.04 429.34 235.58 C 430.38 235.54 431.43 235.51 432.48 235.49 C 432.57 234.96 432.76 233.90 432.85 233.36 C 431.65 233.38 430.47 233.40 429.28 233.42 Z" />
</g>
<g id="#e9e9e9ff">
<path fill="#e9e9e9" opacity="1.00" d=" M 361.48 223.40 C 363.30 224.94 364.98 226.65 366.54 228.46 C 366.36 230.98 366.02 233.66 367.02 236.05 C 367.91 238.22 370.16 239.28 372.12 240.31 C 366.61 240.24 361.03 242.38 355.67 240.15 C 355.54 236.29 355.61 232.43 355.93 228.58 C 356.29 228.76 357.01 229.12 357.37 229.31 C 357.42 233.00 357.34 236.70 357.41 240.41 C 359.42 240.39 361.43 240.38 363.45 240.36 C 363.04 234.71 364.93 228.40 361.48 223.40 Z" />
<path fill="#e9e9e9" opacity="1.00" d=" M 373.34 228.43 C 374.48 228.40 375.63 228.38 376.78 228.37 C 376.75 228.90 376.70 229.98 376.68 230.52 C 375.57 230.52 374.46 230.52 373.36 230.53 C 373.35 230.00 373.34 228.95 373.34 228.43 Z" />
</g>
<g id="#bfbebeff">
<path fill="#bfbebe" opacity="1.00" d=" M 382.82 225.63 C 384.87 228.29 382.92 231.25 382.45 234.08 C 382.37 236.05 382.85 237.99 383.12 239.94 C 381.38 240.11 379.63 240.29 377.89 240.44 C 380.28 239.79 381.93 238.27 381.90 235.66 C 378.81 235.59 375.71 235.59 372.64 235.29 C 375.76 233.97 379.23 233.57 382.20 231.88 C 382.61 229.82 382.65 227.71 382.82 225.63 Z" />
</g>
<g id="#f4f4f4ff">
<path fill="#f4f4f4" opacity="1.00" d=" M 229.38 227.49 C 230.47 227.45 231.56 227.41 232.66 227.37 C 232.68 230.07 232.67 232.77 232.57 235.47 C 231.49 235.47 230.42 235.48 229.35 235.50 C 229.28 232.83 229.28 230.16 229.38 227.49 Z" />
</g>
<g id="#fafafaff">
<path fill="#fafafa" opacity="1.00" d=" M 209.55 228.58 C 210.68 228.51 211.81 228.43 212.95 228.36 C 213.21 230.72 214.20 233.70 212.10 235.52 C 211.43 235.42 210.07 235.20 209.39 235.10 C 209.49 232.92 209.53 230.75 209.55 228.58 Z" />
</g>
</svg>
